<?xml version="1.0" standalone="no"?>
<!DOCTYPE svg PUBLIC "-//W3C//DTD SVG 1.1//EN" "http://www.w3.org/Graphics/SVG/1.1/DTD/svg11.dtd" >
<svg xmlns="http://www.w3.org/2000/svg" xmlns:xlink="http://www.w3.org/1999/xlink" version="1.1">
<metadata>
Created by FontForge 20170731 at Wed Jan  6 19:30:32 2016
 By Aleksey,,,
Copyright (c) 2011 by Omnibus-Type (www.omnibus-type.com) with Reserved Font Name 'Rosario'. Copyright (c) 2013 by Adobe Systems Incorporated. All Rights Reserved.
</metadata>
<defs>
<font id="Rosario-Italic" horiz-adv-x="526" >
  <font-face 
    font-family="Rosario"
    font-weight="400"
    font-style="italic"
    font-stretch="normal"
    units-per-em="1000"
    panose-1="2 0 5 6 5 0 0 2 0 3"
    ascent="779"
    descent="-221"
    x-height="490"
    cap-height="724"
    bbox="-181 -235 1084 948"
    underline-thickness="19"
    underline-position="-147"
    unicode-range="U+000D-FB02"
  />
<missing-glyph horiz-adv-x="234" 
 />
    <glyph glyph-name="fi" unicode="fi" horiz-adv-x="500" 
d="M491 658l-77 -23q-4 35 -24.5 53.5t-53.5 18.5q-48 0 -83 -41.5t-51 -152.5q-2 -12 -3 -23h261l-56 -428v-62h-89l57 427h-183l-67 -489q-10 -79 -53.5 -123.5t-111.5 -44.5q-64 0 -112 31l40 57q22 -15 34 -19.5t36 -4.5q74 0 89 114l65 479h-71l9 63h72q10 68 23 113.5
t36.5 86.5t63.5 61t97 20q59 0 100 -29t52 -84z" />
    <glyph glyph-name="fl" unicode="fl" horiz-adv-x="519" 
d="M514 766l-94 -703v-63h-90l88 646q0 27 -20.5 45t-52.5 18q-25 0 -44 -7t-39.5 -26t-36 -60t-23.5 -103q-1 -12 -3 -23h112l-9 -63h-112l-67 -489q-23 -168 -165 -168q-64 0 -112 31l40 58q21 -15 33.5 -20t36.5 -5q74 0 89 114l64 479h-71l9 63h72q6 48 13.5 83t23.5 75
t38.5 65t60 42t86.5 17q63 0 104 -32z" />
    <glyph glyph-name=".notdef" horiz-adv-x="234" 
 />
    <glyph glyph-name=".null" horiz-adv-x="0" 
 />
    <glyph glyph-name=".null" horiz-adv-x="0" 
 />
    <glyph glyph-name="nonmarkingreturn" unicode="&#xd;" horiz-adv-x="234" 
 />
    <glyph glyph-name="space" unicode=" " horiz-adv-x="234" 
 />
    <glyph glyph-name="exclam" unicode="!" horiz-adv-x="246" 
d="M244 667l-91 -460l-58 9l37 467q1 18 17 30t37 12q23 0 41 -13t18 -35zM101 -14q-28 0 -47 19.5t-19 47.5q0 27 19 46.5t46 19.5q28 0 47.5 -19t19.5 -47t-19.5 -47.5t-46.5 -19.5z" />
    <glyph glyph-name="quotedbl" unicode="&#x22;" horiz-adv-x="300" 
d="M175 724l-25 -176l-43 -112h-28l-9 114l25 174h80zM314 724l-25 -176l-43 -112h-28l-9 114l25 174h80z" />
    <glyph glyph-name="numbersign" unicode="#" horiz-adv-x="640" 
d="M584 426h-131l-18 -130h124v-55h-131l-34 -241h-61l33 241h-121l-34 -241h-60l33 241h-127v55h135l17 130h-126v57h134l31 233h62l-32 -233h122l31 233h60l-31 -233h124v-57zM392 426h-122l-17 -130h121z" />
    <glyph glyph-name="dollar" unicode="$" horiz-adv-x="399" 
d="M373 466l-36 -61q-51 35 -97 35q-37 0 -65 -20.5t-28 -56.5q0 -22 19.5 -40.5t47.5 -34t56 -33.5t47.5 -48t19.5 -69q0 -65 -44 -105t-110 -47l-20 -110h-78l34 111q-47 6 -107 38l44 64q52 -42 99 -42q38 0 68.5 22.5t30.5 59.5q0 26 -19.5 46.5t-47.5 36t-56 32.5
t-47.5 45t-19.5 64q0 66 44.5 104.5t111.5 44.5l22 111h78l-35 -113q46 -6 88 -34z" />
    <glyph glyph-name="percent" unicode="%" horiz-adv-x="791" 
d="M746 226q0 -50 -20.5 -102t-63.5 -90.5t-96 -38.5q-65 0 -101 47t-36 112q0 88 50 159t136 71q63 0 97 -47t34 -111zM644 709l-439 -722h-68l406 666h-209q27 -43 27 -100q0 -50 -20.5 -102t-63 -90.5t-95.5 -38.5q-65 0 -101 47t-36 112q0 87 49.5 157.5t135.5 70.5h414
zM673 224q0 39 -15.5 70.5t-48.5 31.5q-46 0 -77 -57t-31 -111q0 -38 18 -70.5t52 -32.5q47 0 74.5 57t27.5 112zM288 552q0 38 -15.5 69.5t-47.5 31.5q-46 0 -77 -56t-31 -112q0 -39 18 -71t52 -32q47 0 74 57.5t27 112.5z" />
    <glyph glyph-name="ampersand" unicode="&#x26;" horiz-adv-x="659" 
d="M654 303q-3 -93 -107 -93h-15q-26 -100 -106.5 -161.5t-195.5 -61.5q-79 0 -136 52.5t-57 131.5q0 138 112 226q-21 36 -21 79q0 98 76 155.5t183 57.5q45 0 94 -15.5t72 -42.5l-42 -47q-48 46 -114 46q-84 0 -134.5 -47t-50.5 -124q0 -10 4 -23q58 26 118 26
q47 0 73.5 -17t26.5 -49q0 -34 -35 -59.5t-89 -25.5q-66 0 -117 39q-31 -35 -47.5 -80t-16.5 -84q0 -58 34.5 -91.5t92.5 -33.5q78 0 139.5 44.5t61.5 81.5q0 41 -46 41q-18 0 -29 -12t-13 -24h-61q2 44 36.5 66.5t76.5 22.5l132 -11q16 0 27.5 8.5t12.5 24.5h61zM364 391
q0 19 -38 19q-44 0 -83 -21q25 -25 62 -25q30 0 44.5 8t14.5 19z" />
    <glyph glyph-name="quotesingle" unicode="'" horiz-adv-x="157" 
d="M169 724l-25 -176l-43 -112h-28l-9 114l25 174h80z" />
    <glyph glyph-name="parenleft" unicode="(" horiz-adv-x="323" 
d="M356 727q-215 -236 -215 -538q0 -171 93 -319l-65 -10q-110 160 -110 350q0 143 62.5 279t170.5 248z" />
    <glyph glyph-name="parenright" unicode=")" horiz-adv-x="328" 
d="M297 386q0 -143 -62 -278.5t-170 -247.5l-65 10q215 235 215 537q0 172 -93 320l65 10q110 -160 110 -351z" />
    <glyph glyph-name="asterisk" unicode="*" horiz-adv-x="405" 
d="M440 565l-141 -28l-6 43l128 62zM317 724l-37 -137h-42v137h79zM375 425l-69 -48l-51 124l35 22zM227 578l-19 -36l-133 21l31 75zM240 500l-85 -121l-55 46l109 101z" />
    <glyph glyph-name="plus" unicode="+" horiz-adv-x="642" 
d="M567 211h-215v-211h-70v211h-214v69h214v210h70v-210h215v-69z" />
    <glyph glyph-name="comma" unicode="," horiz-adv-x="251" 
d="M171 50q0 -50 -36 -95.5t-87 -79.5l-30 33l6 5q52 42 52 69q0 7 -20 29t-20 43q0 31 20 48.5t49 17.5q31 0 48.5 -20t17.5 -50z" />
    <glyph glyph-name="hyphen" unicode="-" horiz-adv-x="324" 
d="M286 293l-11 -71h-241l11 71h241z" />
    <glyph glyph-name="period" unicode="." horiz-adv-x="247" 
d="M101 -13q-28 0 -47 19.5t-19 47.5q0 27 19 46.5t46 19.5q28 0 47.5 -19t19.5 -47t-19.5 -47.5t-46.5 -19.5z" />
    <glyph glyph-name="slash" unicode="/" horiz-adv-x="293" 
d="M307 724l-253 -732h-68l255 732h66z" />
    <glyph glyph-name="zero" unicode="0" horiz-adv-x="513" 
d="M488 284q0 -118 -72 -207.5t-189 -89.5q-95 0 -148.5 62t-53.5 157q0 119 72 208t189 89q95 0 148.5 -62t53.5 -157zM402 297q0 144 -122 144q-47 0 -82 -22.5t-53 -60t-26.5 -78.5t-8.5 -86q0 -145 123 -145q38 0 68.5 15t49 39.5t30.5 57.5t16.5 66.5t4.5 69.5z" />
    <glyph glyph-name="one" unicode="1" horiz-adv-x="376" 
d="M344 67l-9 -67h-297l8 67h111l45 334l-110 -31l-6 47l160 76h48l-57 -426h107z" />
    <glyph glyph-name="two" unicode="2" horiz-adv-x="450" 
d="M35 0v53q179 175 214 209q69 67 69 117q0 24 -15 43t-46 19q-32 0 -64 -18.5t-48 -37.5l-16 -19l-47 38q80 99 190 99q58 0 97.5 -31.5t39.5 -88.5q0 -86 -113 -182l-156 -133h287l-14 -68h-378z" />
    <glyph glyph-name="three" unicode="3" horiz-adv-x="380" 
d="M345 417q0 -51 -43.5 -104.5t-99.5 -91.5q7 1 21 1q52 0 81.5 -32t29.5 -85q0 -74 -38.5 -135t-100.5 -98.5t-133.5 -59t-142.5 -24.5l-4 52q53 5 109 24t106.5 50t83 77.5t32.5 99.5q0 66 -71 66q-34 0 -79 -15l-20 54q64 34 122 93t58 112q0 40 -44 40q-51 0 -113 -56
l-42 37q35 37 85.5 59t98.5 22q45 0 74.5 -20.5t29.5 -65.5z" />
    <glyph glyph-name="four" unicode="4" horiz-adv-x="478" 
d="M453 69l-12 -69h-93l-25 -183h-79l25 183h-272v41l323 449h94l-56 -421h95zM322 391l-232 -322h188z" />
    <glyph glyph-name="five" unicode="5" horiz-adv-x="344" 
d="M328 490l-24 -84h-168l-31 -79q26 -14 50.5 -33.5t52.5 -50t45 -73t17 -90.5q0 -67 -29 -121.5t-70.5 -84t-83 -49.5t-70.5 -26l-29 -6l-14 52q210 69 210 230q0 60 -48.5 117.5t-117.5 90.5l85 207h225z" />
    <glyph glyph-name="six" unicode="6" horiz-adv-x="497" 
d="M494 677q-116 -47 -206.5 -131.5t-134.5 -191.5q64 49 139 49q70 0 113.5 -47.5t43.5 -117.5q0 -104 -67 -177.5t-170 -73.5q-83 0 -132.5 59t-49.5 143q0 22 3 46q20 136 103 244.5t210 185.5q68 41 125 61zM361 226q0 47 -26 78t-72 31q-65 0 -136 -67q-10 -43 -10 -81
q0 -57 26.5 -97.5t77.5 -40.5q63 0 101.5 55t38.5 122z" />
    <glyph glyph-name="seven" unicode="7" horiz-adv-x="407" 
d="M393 449l-264 -632h-86l256 598h-277l19 75h352v-41z" />
    <glyph glyph-name="eight" unicode="8" horiz-adv-x="461" 
d="M436 585q0 -61 -35.5 -109.5t-98.5 -98.5q33 -37 51 -60t35 -61t17 -76q0 -90 -59.5 -141.5t-155.5 -51.5q-87 0 -126.5 44.5t-39.5 108.5q0 35 12.5 67t39 62t48.5 50t60 50q-84 93 -84 175q0 27 10.5 56.5t31 57.5t58.5 46t86 18q47 0 80 -16t46.5 -41t18.5 -43.5
t5 -36.5zM358 582q0 29 -17 55t-53 26q-50 0 -73.5 -35.5t-23.5 -71.5q0 -32 16.5 -60.5t51.5 -68.5q99 83 99 155zM315 177q0 51 -88 143q-60 -46 -91.5 -86.5t-31.5 -88.5t28 -73.5t67 -25.5q46 0 81 33.5t35 97.5z" />
    <glyph glyph-name="nine" unicode="9" horiz-adv-x="486" 
d="M461 305q0 -25 -3 -49q-19 -136 -103 -241.5t-213 -176.5q-55 -30 -126 -53l-23 52q265 108 345 299q-64 -49 -140 -49q-67 0 -111 51.5t-44 117.5q0 98 69 172.5t167 74.5q86 0 134 -55.5t48 -142.5zM374 307q0 58 -25 96t-79 38q-61 0 -100.5 -56t-39.5 -121
q0 -46 26.5 -77.5t72.5 -31.5q64 0 135 67q10 40 10 85z" />
    <glyph glyph-name="colon" unicode=":" horiz-adv-x="247" 
d="M101 -13q-28 0 -47 19.5t-19 47.5q0 27 19 46.5t46 19.5q28 0 47.5 -19t19.5 -47t-19.5 -47.5t-46.5 -19.5zM146 295q-28 0 -47 19.5t-19 47.5q0 27 19 46.5t46 19.5q28 0 47.5 -19t19.5 -47t-19.5 -47.5t-46.5 -19.5z" />
    <glyph glyph-name="semicolon" unicode=";" horiz-adv-x="251" 
d="M148 295q-28 0 -47 19.5t-19 47.5q0 27 19 46.5t46 19.5q28 0 47.5 -19t19.5 -47t-19.5 -47.5t-46.5 -19.5zM171 50q0 -50 -36 -95.5t-87 -79.5l-30 33l6 5q52 42 52 69q0 7 -20 29t-20 43q0 31 20 48.5t49 17.5q31 0 48.5 -20t17.5 -50z" />
    <glyph glyph-name="less" unicode="&#x3c;" horiz-adv-x="630" 
d="M566 -7l-498 215v73l498 213v-76l-405 -175l405 -175v-75z" />
    <glyph glyph-name="equal" unicode="=" horiz-adv-x="630" 
d="M567 305h-499v68h499v-68zM567 115h-499v69h499v-69z" />
    <glyph glyph-name="greater" unicode="&#x3e;" horiz-adv-x="630" 
d="M566 208l-498 -215v75l405 175l-405 175v76l498 -213v-73z" />
    <glyph glyph-name="question" unicode="?" horiz-adv-x="382" 
d="M385 583q0 -54 -25.5 -89.5t-62.5 -51t-74 -27t-62.5 -29t-25.5 -45.5q0 -26 22.5 -43t47 -21.5t51.5 -5.5l-19 -68q-76 7 -128 40.5t-52 101.5q0 50 25.5 82t62 47t73 28t62 37t25.5 63q0 28 -23 45t-53 17q-51 0 -76 -14l-17 67q39 12 90 12q71 0 115 -38t44 -108z
M101 -15q-28 0 -47 19.5t-19 47.5q0 27 19 46.5t46 19.5q28 0 47.5 -19t19.5 -47t-19.5 -47.5t-46.5 -19.5z" />
    <glyph glyph-name="at" unicode="@" horiz-adv-x="831" 
d="M446 -75l12 -41q-45 -12 -92 -12q-137 0 -226 91.5t-89 228.5q0 105 47.5 200.5t141.5 159.5t213 64q138 0 232 -82t94 -223q0 -101 -52.5 -180t-136.5 -79q-75 0 -103 61q-1 1 -3 1q-21 -30 -52.5 -47t-62.5 -17q-61 0 -91 41.5t-30 105.5q0 52 22.5 106.5t70.5 95.5
t108 41q51 0 84 -36q6 9 16 29h37q-40 -264 -40 -286q0 -52 46 -52q61 0 99 65.5t38 150.5q0 121 -79 192t-197 71q-79 0 -147 -33.5t-112 -88t-68.5 -122.5t-24.5 -138q0 -119 75 -198.5t190 -79.5q39 0 80 11zM510 359q-29 32 -64 32q-40 0 -70 -37t-42 -80t-12 -79
q0 -96 61 -96q33 0 57 26t38 74.5t20 79.5t12 80z" />
    <glyph glyph-name="A" unicode="A" horiz-adv-x="606" 
d="M561 0h-97l-47 249h-227l-115 -249h-81l338 724h87zM404 316l-53 286l-130 -286h183z" />
    <glyph glyph-name="B" unicode="B" horiz-adv-x="580" 
d="M550 574q0 -66 -40.5 -113.5t-105.5 -65.5q61 -16 95.5 -56t34.5 -104q0 -235 -300 -235h-189l89 659v65h222q194 0 194 -150zM456 570q0 85 -111 85h-122l-30 -228h99q76 0 120 35.5t44 107.5zM441 241q0 59 -44 86.5t-109 27.5h-106l-37 -286h103q90 0 141.5 42
t51.5 130z" />
    <glyph glyph-name="C" unicode="C" horiz-adv-x="585" 
d="M620 657l-56 -58q-57 66 -151 66q-67 0 -121 -35t-85.5 -91t-48 -120t-16.5 -127q0 -101 46.5 -164t144.5 -63q93 0 177 62l31 -68q-97 -69 -219 -69q-133 0 -205 87t-72 221q0 83 25.5 160.5t72 139t119.5 99t161 37.5q131 0 197 -77z" />
    <glyph glyph-name="D" unicode="D" horiz-adv-x="679" 
d="M639 434q0 -83 -22.5 -159t-65.5 -138.5t-114.5 -99.5t-161.5 -37h-230l89 659v65h244q130 0 195.5 -80.5t65.5 -209.5zM545 430q0 97 -41.5 161t-134.5 64h-146l-78 -586h136q67 0 119.5 34.5t83 89.5t46 116t15.5 121z" />
    <glyph glyph-name="E" unicode="E" horiz-adv-x="500" 
d="M544 724l-10 -69h-313l-32 -250h242l-10 -68h-242l-36 -268h313l-9 -69h-402l88 659v65h411z" />
    <glyph glyph-name="F" unicode="F" horiz-adv-x="468" 
d="M512 724l-9 -69h-282l-32 -249h223l-10 -68h-223l-46 -338h-89l88 659v65h380z" />
    <glyph glyph-name="G" unicode="G" horiz-adv-x="667" 
d="M640 651l-57 -59q-38 39 -77 56t-93 17q-69 0 -123.5 -34.5t-86 -90t-47.5 -119t-16 -129.5q0 -100 44 -163.5t139 -63.5q74 0 126 50t62 125l8 65h-169l9 68h260q-25 -170 -43 -373h-48l-19 75q-89 -85 -210 -85q-126 0 -190 81.5t-64 209.5q0 85 24.5 164.5t70 144.5
t119 104.5t163.5 39.5q59 0 121.5 -20.5t96.5 -62.5z" />
    <glyph glyph-name="H" unicode="H" horiz-adv-x="672" 
d="M656 724l-98 -724h-90l46 342h-334l-46 -342h-90l89 659v65h99l-42 -314h334l42 314h90z" />
    <glyph glyph-name="I" unicode="I" horiz-adv-x="251" 
d="M235 724l-98 -724h-90l89 659v65h99z" />
    <glyph glyph-name="J" unicode="J" horiz-adv-x="253" 
d="M238 724l-99 -715q-16 -115 -61.5 -176.5t-144.5 -61.5q-71 0 -114 32l40 57q35 -25 73 -25q95 0 120 182l88 643v64h98z" />
    <glyph glyph-name="K" unicode="K" horiz-adv-x="558" 
d="M598 724l-317 -323l237 -401h-111l-222 379l-51 -379h-90l89 659v65h99l-44 -323l316 323h94z" />
    <glyph glyph-name="L" unicode="L" horiz-adv-x="471" 
d="M435 69l-10 -69h-380l89 659v65h100l-88 -655h289z" />
    <glyph glyph-name="M" unicode="M" horiz-adv-x="789" 
d="M773 724l-98 -724h-90l79 589l-286 -591h-53l-128 592l-80 -590h-73l88 660v64h124l125 -563l274 563h118z" />
    <glyph glyph-name="N" unicode="N" horiz-adv-x="674" 
d="M657 724l-98 -729h-57l-301 617l-82 -612h-74l89 659v65h114l262 -541l74 541h73z" />
    <glyph glyph-name="O" unicode="O" horiz-adv-x="709" 
d="M668 438q0 -85 -23.5 -164t-67.5 -143t-115 -102.5t-158 -38.5q-129 0 -194 84t-65 215q0 65 14 128t44 120.5t72 101t102 69.5t130 26q131 0 196 -82t65 -214zM574 433q0 100 -41.5 166t-134.5 66q-66 0 -118 -35.5t-81.5 -92.5t-44 -120t-14.5 -126t15 -112.5
t56.5 -84.5t105.5 -35q67 0 118.5 35.5t80.5 93t43.5 120t14.5 125.5z" />
    <glyph glyph-name="P" unicode="P" horiz-adv-x="539" 
d="M544 543q0 -116 -73.5 -186.5t-191.5 -70.5h-104l-38 -286h-91l89 659v65h197q96 0 154 -43t58 -138zM450 532q0 60 -33 91.5t-93 31.5h-99l-40 -302h100q75 0 120 51.5t45 127.5z" />
    <glyph glyph-name="Q" unicode="Q" horiz-adv-x="714" 
d="M1084 -175q-73 -25 -121 -36t-106 -11q-67 0 -152.5 30.5t-153 67.5t-144 72t-126.5 41q-83 10 -138 56.5t-76.5 107t-21.5 134.5q0 82 23 160t66.5 143t114.5 104.5t158 39.5q131 0 196 -83t65 -215q0 -131 -59 -250.5t-170 -170.5q34 -13 54 -25q264 -148 406 -148
q65 0 170 30zM574 430q0 101 -41.5 168t-134.5 67q-66 0 -118 -36t-81.5 -93.5t-44 -120.5t-14.5 -126q0 -47 9 -86.5t28.5 -73.5t55 -53.5t84.5 -19.5q67 0 118.5 35.5t80.5 93t43.5 120t14.5 125.5z" />
    <glyph glyph-name="R" unicode="R" horiz-adv-x="569" 
d="M545 556q0 -73 -44 -132.5t-115 -80.5l148 -343h-103l-135 326q-23 -2 -90 -2h-28l-43 -324h-91l89 659v65h216q86 0 141 -41t55 -127zM451 549q0 52 -35 79t-90 27h-103l-35 -263h73q87 0 138.5 38t51.5 119z" />
    <glyph glyph-name="S" unicode="S" horiz-adv-x="507" 
d="M498 687l-42 -68q-57 46 -125 46q-57 0 -99 -31t-42 -84q0 -32 20 -58t49.5 -43t64.5 -38.5t64.5 -44t49.5 -60t20 -85.5q0 -103 -73 -167t-178 -64q-98 0 -195 54l42 75q47 -34 78 -47t79 -13q60 0 106.5 45t46.5 104q0 42 -27.5 73t-66.5 52.5t-78 45t-66.5 63
t-27.5 93.5q0 94 70 146.5t170 52.5q90 0 160 -47z" />
    <glyph glyph-name="T" unicode="T" horiz-adv-x="514" 
d="M558 724l-9 -69h-209l-88 -655h-91l88 655h-209l10 69h508z" />
    <glyph glyph-name="U" unicode="U" horiz-adv-x="638" 
d="M623 724l-64 -467q-16 -121 -86.5 -194t-204.5 -73q-117 0 -169.5 55.5t-52.5 146.5q0 16 4 52l56 416v64h100l-65 -481q-3 -24 -3 -43q0 -65 34 -103t108 -38q90 0 142 53t64 146l63 466h74z" />
    <glyph glyph-name="V" unicode="V" horiz-adv-x="518" 
d="M578 724l-337 -727h-56l-141 727h95l103 -561l259 561h77z" />
    <glyph glyph-name="W" unicode="W" horiz-adv-x="795" 
d="M854 724l-287 -727h-73l-69 540l-213 -540h-73l-95 727h94l70 -552l216 552h70l69 -552l217 552h74z" />
    <glyph glyph-name="X" unicode="X" horiz-adv-x="545" 
d="M578 724l-246 -335l170 -389h-104l-131 298l-216 -298h-84l269 372l-153 352h102l116 -264l192 264h85z" />
    <glyph glyph-name="Y" unicode="Y" horiz-adv-x="478" 
d="M538 724l-248 -366l-48 -358h-91l48 359l-157 365h103l122 -280l187 280h84z" />
    <glyph glyph-name="Z" unicode="Z" horiz-adv-x="532" 
d="M546 724l-9 -67l-438 -588h371l-16 -69h-471l9 67l438 588h-338l9 69h445z" />
    <glyph glyph-name="bracketleft" unicode="[" horiz-adv-x="332" 
d="M361 724l-7 -49h-120l-106 -756h120l-8 -49h-198l121 854h198z" />
    <glyph glyph-name="backslash" unicode="\" horiz-adv-x="359" 
d="M321 0h-64l-252 724h67z" />
    <glyph glyph-name="bracketright" unicode="]" horiz-adv-x="327" 
d="M309 724l-121 -852h-198l8 49h120l106 755h-121l8 48h198z" />
    <glyph glyph-name="asciicircum" unicode="^" horiz-adv-x="618" 
d="M563 0h-76l-177 400l-177 -400h-77l216 491h73z" />
    <glyph glyph-name="underscore" unicode="_" horiz-adv-x="462" 
d="M480 -73l-9 -55h-492l9 55h492z" />
    <glyph glyph-name="grave" unicode="`" horiz-adv-x="248" 
d="M250 577h-73l-127 147h118z" />
    <glyph glyph-name="a" unicode="a" 
d="M500 12q-42 -23 -75 -23q-35 0 -56.5 24t-22.5 61h-4q-57 -87 -148 -87q-77 0 -117 53.5t-40 137.5q0 55 19 112t52.5 104.5t84 78t107.5 30.5q72 0 109 -47l21 39h44l-56 -380q-2 -14 -2 -21q0 -40 33 -40q16 0 40 8zM382 403q-33 38 -79 38q-56 0 -97.5 -47.5
t-58.5 -106.5t-17 -113q0 -50 18.5 -87.5t61.5 -37.5q44 0 77.5 39t52 93.5t28.5 125.5z" />
    <glyph glyph-name="b" unicode="b" horiz-adv-x="501" 
d="M463 318q0 -137 -82.5 -234t-218.5 -97q-32 0 -67.5 12t-57.5 34l87 674v57h88l-43 -320q69 59 135 59q79 0 119 -52.5t40 -132.5zM375 322q0 119 -85 119q-35 0 -71.5 -21.5t-59.5 -52.5l-33 -258q-1 -8 -1 -11q0 -49 58 -49q60 0 105.5 46.5t66 107t20.5 119.5z" />
    <glyph glyph-name="c" unicode="c" horiz-adv-x="421" 
d="M430 452l-50 -55q-44 44 -101 44q-50 0 -87 -40t-53 -91t-16 -100q0 -62 27.5 -108t83.5 -46q34 0 60 10t61 34l28 -64q-49 -27 -82 -38t-80 -11q-89 0 -137 59t-48 151q0 125 71.5 215.5t189.5 90.5q76 0 133 -51z" />
    <glyph glyph-name="d" unicode="d" 
d="M509 764l-93 -660q-1 -9 -1 -12q0 -38 33 -38q8 0 18 2t16 4l6 2l11 -50q-44 -23 -75 -23q-35 0 -57 23.5t-22 57.5v4h-4q-61 -87 -147 -87q-80 0 -119 53.5t-39 135.5q0 74 31 148t93.5 126.5t138.5 52.5q54 0 89 -39l34 246v54h87zM377 383l2 21q-30 37 -78 37
q-55 0 -96.5 -48.5t-59 -107.5t-17.5 -112q0 -50 18.5 -86.5t63.5 -36.5q30 0 54.5 16t41.5 47.5t29 60.5t20.5 75.5t12.5 70t9 63.5z" />
    <glyph glyph-name="e" unicode="e" horiz-adv-x="465" 
d="M428 397q0 -91 -98 -149q-74 -44 -208 -46v-5q0 -59 30 -99.5t87 -40.5q73 0 139 45l29 -59q-79 -56 -173 -56q-90 0 -143.5 57t-53.5 148q0 121 73 216t190 95q56 0 92 -26t36 -80zM344 390q0 25 -15.5 38t-41.5 13q-59 0 -106.5 -59.5t-53.5 -121.5q94 0 148 33
q27 17 48 43.5t21 53.5z" />
    <glyph glyph-name="f" unicode="f" horiz-adv-x="250" 
d="M457 731l-39 -59q-33 35 -75 35q-39 0 -66.5 -18.5t-43 -52.5t-23.5 -67.5t-13 -78.5h112l-8 -63h-112l-67 -488q-24 -169 -165 -169q-62 0 -112 32l40 57q22 -15 34.5 -20t35.5 -5q74 0 89 114l65 479h-71l8 63h72q6 48 14 85t24.5 75t39.5 63t59 41t82 16q63 0 120 -39
z" />
    <glyph glyph-name="g" unicode="g" horiz-adv-x="515" 
d="M477 512l-58 -419q-7 -50 -16 -90t-28 -85.5t-45 -76t-67.5 -51t-94.5 -20.5q-75 0 -150 45l41 63q50 -46 100 -46q135 0 180 242l-3 1q-50 -88 -139 -88q-77 0 -117.5 54t-40.5 135q0 77 31.5 151t95.5 125t145 51q45 0 92 -22zM386 422q-34 19 -73 19q-59 0 -102.5 -46
t-61.5 -105t-18 -117q0 -50 19.5 -87t62.5 -37q117 0 157 266z" />
    <glyph glyph-name="h" unicode="h" horiz-adv-x="493" 
d="M450 328l-35 -270l2 -58h-91l40 302q4 32 4 52q0 77 -64 77q-57 0 -138 -66l-49 -365h-80l95 707v57h88l-47 -336q75 75 152 75q126 0 126 -130q0 -21 -3 -45z" />
    <glyph glyph-name="i" unicode="i" horiz-adv-x="228" 
d="M227 668q0 -26 -19.5 -46t-46.5 -20q-22 0 -36.5 14.5t-14.5 35.5q0 25 20 46t46 21q22 0 36.5 -15t14.5 -36zM186 490l-58 -432v-58h-88l58 433v57h88z" />
    <glyph glyph-name="j" unicode="j" horiz-adv-x="230" 
d="M229 668q0 -26 -19.5 -46.5t-46.5 -20.5q-23 0 -37 15t-14 36q0 26 19 46t46 20q23 0 37.5 -14.5t14.5 -35.5zM189 490l-75 -551q-23 -169 -165 -169q-61 0 -113 32l40 57q32 -25 70 -25q74 0 89 114l67 485v57h87z" />
    <glyph glyph-name="k" unicode="k" horiz-adv-x="426" 
d="M444 490l-207 -204l169 -286h-94l-157 267l-36 -267h-80l96 707v57h88l-64 -471l198 197h87z" />
    <glyph glyph-name="l" unicode="l" horiz-adv-x="228" 
d="M223 764l-95 -706v-58h-89l96 707v57h88z" />
    <glyph glyph-name="m" unicode="m" horiz-adv-x="762" 
d="M719 329l-36 -271v-58h-87l40 303q4 32 4 50q0 78 -65 78q-53 0 -131 -67q0 -16 -3 -35l-43 -329h-80l40 303q4 32 4 52q0 76 -64 76q-48 0 -129 -66l-49 -365h-79l47 359q3 23 3 43q0 24 -3.5 46t-7.5 32l-4 10l88 10q9 -27 9 -72q84 75 147 75q92 0 119 -82
q91 82 158 82q125 0 125 -130q0 -20 -3 -44z" />
    <glyph glyph-name="n" unicode="n" horiz-adv-x="494" 
d="M451 329l-36 -271v-58h-88l41 303q5 43 5 54q0 74 -65 74q-62 0 -138 -66l-49 -365h-80l47 350q4 25 4 52q0 26 -4 48t-8 31l-4 9l88 10q7 -25 9 -72q84 75 157 75q124 0 124 -130q0 -20 -3 -44z" />
    <glyph glyph-name="o" unicode="o" horiz-adv-x="508" 
d="M472 294q0 -121 -69.5 -214t-182.5 -93q-89 0 -136 60.5t-47 149.5q0 78 28.5 146.5t87 114t135.5 45.5q90 0 137 -60t47 -149zM387 293q0 60 -25.5 104t-80.5 44q-52 0 -90 -41.5t-53.5 -93.5t-15.5 -104q0 -59 26 -106t79 -47q41 0 73 24t50 62t27.5 79t9.5 79z" />
    <glyph glyph-name="p" unicode="p" horiz-adv-x="518" 
d="M479 308q0 -77 -31 -150t-91 -122t-134 -49q-27 0 -54.5 11t-42.5 25l-25 -192v-55h-88l73 557q6 48 6 72q0 42 -14 85l88 11q8 -46 8 -69v-8q54 79 147 79q77 0 117.5 -55.5t40.5 -139.5zM386 314q0 51 -19 89t-66 38q-120 0 -156 -263q-3 -18 -6 -49.5t-5 -40.5
q15 -17 41 -28t51 -11q74 0 117 85t43 180z" />
    <glyph glyph-name="q" unicode="q" horiz-adv-x="512" 
d="M477 522l-93 -689v-57h-88l41 291q-57 -80 -143 -80q-80 0 -119 53.5t-39 135.5q0 51 18 107t50 105.5t83.5 82t111.5 32.5t107 -43l32 62h39zM384 403q-31 38 -83 38q-56 0 -97.5 -49.5t-58.5 -108.5t-17 -110t19 -87.5t63 -36.5q29 0 52.5 14.5t40.5 43t29.5 57.5
t22 70.5t14 68.5t10.5 65z" />
    <glyph glyph-name="r" unicode="r" horiz-adv-x="327" 
d="M351 502l-32 -88q-81 0 -152 -87l-43 -327h-83l46 358q3 24 3 47q0 56 -17 86l92 11q10 -31 10 -78v-13q31 39 78 65t98 26z" />
    <glyph glyph-name="s" unicode="s" horiz-adv-x="376" 
d="M361 470l-34 -60q-43 31 -92 31q-38 0 -66 -20.5t-28 -56.5q0 -22 19.5 -40.5t47.5 -34t56 -33.5t47.5 -48t19.5 -69q0 -72 -52 -112t-126 -40q-78 0 -147 41l43 61q48 -40 101 -40q40 0 69 21t29 60q0 26 -19.5 46.5t-47 36t-55.5 32.5t-47.5 45t-19.5 64q0 73 53 111
t128 38q66 0 121 -33z" />
    <glyph glyph-name="t" unicode="t" horiz-adv-x="287" 
d="M302 490l-9 -63h-113l-41 -317q-2 -15 -2 -21q0 -40 39 -40q21 0 65 11l7 -53q-53 -20 -96 -20t-69 19.5t-26 74.5l3 35l41 311h-69l9 63h69l20 141h89l-30 -141h113z" />
    <glyph glyph-name="u" unicode="u" horiz-adv-x="510" 
d="M483 11q-44 -23 -75 -23q-29 0 -54 22t-25 63h-4q-57 -86 -157 -86q-65 0 -96.5 35t-31.5 97q0 19 3 40l38 274v57h87l-43 -319q-3 -22 -3 -41q0 -81 67 -81q50 0 94.5 52.5t62.5 177.5l22 153v58h88l-51 -369q-2 -20 -2 -26q0 -42 28 -42q9 0 19 2.5t16 4.5l6 3z" />
    <glyph glyph-name="v" unicode="v" horiz-adv-x="418" 
d="M451 490l-235 -495h-73l-101 495h84l75 -373l175 373h75z" />
    <glyph glyph-name="w" unicode="w" horiz-adv-x="610" 
d="M643 490l-215 -495h-58l-50 337l-147 -337h-58l-73 495h82l50 -334l145 334h58l51 -334l144 334h71z" />
    <glyph glyph-name="x" unicode="x" horiz-adv-x="388" 
d="M421 490l-177 -229l126 -261h-91l-91 191l-145 -191h-79l192 254l-114 236h89l81 -166l130 166h79z" />
    <glyph glyph-name="y" unicode="y" horiz-adv-x="410" 
d="M451 490l-248 -541q-83 -179 -249 -179q-60 0 -106 27l38 60q45 -21 73 -21q56 0 102 34t74 100l14 33l-104 487h85l73 -372l172 372h76z" />
    <glyph glyph-name="z" unicode="z" horiz-adv-x="434" 
d="M423 443l-297 -380h256l-10 -63h-354v48l295 379h-222l9 63h323v-47z" />
    <glyph glyph-name="braceleft" unicode="{" horiz-adv-x="321" 
d="M350 730l-7 -47q-52 0 -71 -20t-26 -72l-23 -165q-15 -107 -81 -130q47 -21 47 -87q0 -19 -3 -43l-23 -165q-3 -18 -3 -32q0 -33 17 -46t57 -13l-7 -47q-78 0 -110.5 29t-32.5 91q0 18 4 43l22 153q3 15 3 32q0 63 -51 63l7 46q59 1 73 92l23 156q12 83 53.5 122.5
t131.5 39.5z" />
    <glyph glyph-name="bar" unicode="|" horiz-adv-x="236" 
d="M152 -109h-68v851h68v-851z" />
    <glyph glyph-name="braceright" unicode="}" horiz-adv-x="321" 
d="M121 734h24q123 0 123 -122q0 -18 -3 -41l-23 -164q-2 -14 -2 -22q0 -63 52 -63l-6 -47q-62 0 -75 -96l-22 -153q-12 -80 -51 -121.5t-115 -41.5h-21l6 46q54 0 73 17.5t26 71.5l22 170q14 105 84 132q-50 19 -50 86q0 15 4 43l23 177q2 20 2 25q0 35 -17 46t-60 11z" />
    <glyph glyph-name="asciitilde" unicode="~" horiz-adv-x="559" 
d="M515 297q-23 -36 -60.5 -64.5t-74.5 -28.5q-38 0 -103.5 33.5t-101.5 33.5q-25 0 -46 -20.5t-33 -47.5l-52 44q18 40 54 68t77 28q45 0 113.5 -33t91.5 -33q26 0 48.5 19.5t37.5 46.5z" />
    <glyph glyph-name="uni00A0" unicode="&#xa0;" horiz-adv-x="234" 
 />
    <glyph glyph-name="exclamdown" unicode="&#xa1;" horiz-adv-x="245" 
d="M21 -177l91 460l58 -9l-37 -467q-1 -18 -17 -30t-37 -12q-23 0 -41 13t-18 35zM164 370q-28 0 -47 19.5t-19 47.5q0 27 19 46.5t46 19.5q28 0 47.5 -19t19.5 -47t-19.5 -47.5t-46.5 -19.5z" />
    <glyph glyph-name="cent" unicode="&#xa2;" horiz-adv-x="421" 
d="M430 454l-50 -57q-46 44 -101 44q-62 0 -103 -58t-50 -129q-3 -21 -3 -44q0 -60 29 -107.5t82 -47.5q34 0 59.5 10t61.5 35l28 -65q-47 -27 -79 -37.5t-75 -10.5l-20 -109h-78l36 116q-62 18 -96.5 73t-34.5 130q0 117 62.5 205.5t167.5 101.5l22 111h78l-36 -113
q60 -12 100 -48z" />
    <glyph glyph-name="sterling" unicode="&#xa3;" horiz-adv-x="514" 
d="M547 634l-77 -42q-24 71 -85 71q-44 0 -77.5 -32t-40.5 -90l-15 -118h123l-10 -68h-123l-38 -288h278l-10 -69h-456l10 69h89l38 288h-73l10 68h73l15 117q12 94 72 143t143 49q53 0 93.5 -26t60.5 -72z" />
    <glyph glyph-name="currency" unicode="&#xa4;" horiz-adv-x="536" 
d="M427 218l58 -56q-17 -16 -49 -48q-37 34 -54 53q-50 -42 -116 -42q-64 0 -117 42l-16.5 -16.5l-19.5 -19.5l-17 -17l-49 49l56 56q-31 52 -31 113q0 60 32 113l-57 57q25 24 49 49l54 -55q52 42 116 42q65 0 115 -41l55 54l49 -49l-58 -57q33 -54 33 -113q0 -60 -33 -114
zM266 186q50 0 86 41t36 105q0 61 -35 103t-87 42t-86.5 -42t-34.5 -103q0 -63 36 -104.5t85 -41.5z" />
    <glyph glyph-name="yen" unicode="&#xa5;" horiz-adv-x="468" 
d="M466 490l-137 -176h93l-7 -46h-123l-20 -26l-5 -35h141l-7 -46h-141l-22 -161h-77l22 161h-139l7 46h139l4 36l-13 25h-123l7 46h91l-92 176h85l101 -186l142 186h74z" />
    <glyph glyph-name="brokenbar" unicode="&#xa6;" horiz-adv-x="238" 
d="M152 393h-68v349h68v-349zM152 -115h-68v348h68v-348z" />
    <glyph glyph-name="section" unicode="&#xa7;" horiz-adv-x="454" 
d="M460 758l-25 -66q-33 13 -48 13q-84 0 -84 -108q0 -59 19 -274.5t19 -243.5q0 -38 -9.5 -72.5t-39.5 -67t-78 -40.5q-11 -68 -56 -100t-102 -32q-41 0 -71 15l24 61q1 0 11 -3.5t20.5 -6t15.5 -2.5q84 0 84 109q0 39 -18.5 254t-18.5 264q0 168 126 183q9 63 53 97.5
t105 34.5q12 0 30.5 -3.5t30.5 -7.5zM262 73q0 49 -16 243t-19 253q-47 -20 -47 -104q0 -28 17 -222.5t20 -271.5q45 22 45 102z" />
    <glyph glyph-name="dieresis" unicode="&#xa8;" horiz-adv-x="278" 
d="M278 624q0 -23 -17 -40t-40 -17t-40 17t-17 40t17 40t40 17q24 0 40.5 -16.5t16.5 -40.5zM115 624q0 -23 -17 -40t-40 -17t-40 17t-17 40t17 40t40 17q24 0 40.5 -16.5t16.5 -40.5z" />
    <glyph glyph-name="copyright" unicode="&#xa9;" horiz-adv-x="635" 
d="M508 442q80 -80 80 -192t-80 -192t-192 -80t-192 80t-80 192t80 192t192 80t192 -80zM480 85q69 69 69 165t-68.5 164.5t-164.5 68.5t-164.5 -68.5t-68.5 -164.5t68.5 -164.5t164.5 -68.5t164 68zM400 162l26 -43q-55 -31 -108 -31q-68 0 -107.5 46.5t-39.5 116.5
q0 72 42 117.5t113 45.5q44 0 95 -33l-30 -38q-32 27 -73 27t-63.5 -35.5t-22.5 -78.5q0 -45 23 -83.5t66 -38.5q37 0 79 28z" />
    <glyph glyph-name="ordfeminine" unicode="&#xaa;" horiz-adv-x="363" 
d="M333 401q-30 -15 -48 -15q-23 0 -38 15.5t-17 40.5q-36 -57 -96 -57q-50 0 -76 35t-26 89q0 77 49 144.5t122 67.5q48 0 71 -30l14 25h28l-36 -248q-1 -4 -1 -13q0 -26 21 -26q13 0 26 5zM272 331l-8 -54h-209l9 54h208zM257 656q-22 25 -52 25q-36 0 -63 -31
t-38.5 -69.5t-11.5 -73.5q0 -32 12 -57t40 -25q75 0 103 169z" />
    <glyph glyph-name="guillemotleft" unicode="&#xab;" horiz-adv-x="454" 
d="M422 482l-139 -151l97 -150l-60 -9l-127 160l167 161zM272 482l-137 -151l96 -150l-59 -9l-127 160l167 161z" />
    <glyph glyph-name="logicalnot" unicode="&#xac;" horiz-adv-x="638" 
d="M565 89h-61v190h-432v60h493v-250z" />
    <glyph glyph-name="uni00AD" unicode="&#xad;" horiz-adv-x="636" 
d="M564 216h-492v61h492v-61z" />
    <glyph glyph-name="registered" unicode="&#xae;" horiz-adv-x="459" 
d="M231 405q-83 0 -140.5 57.5t-57.5 140.5t57.5 140.5t140.5 57.5q82 0 140.5 -58t58.5 -140t-58.5 -140t-140.5 -58zM348 486q49 49 49 117t-49 116.5t-117 48.5t-116.5 -48.5t-48.5 -116.5t48.5 -116.5t116.5 -48.5t117 48zM343 492h-60l-65 96h-18v-96h-50v225h88
q78 0 78 -64q0 -40 -46 -57zM200 625h24q42 0 42 30q0 25 -35 25h-31v-55z" />
    <glyph glyph-name="macron" unicode="&#xaf;" horiz-adv-x="276" 
d="M282 598h-290v59h290v-59z" />
    <glyph glyph-name="degree" unicode="&#xb0;" horiz-adv-x="342" 
d="M322 593q0 -63 -44 -106.5t-107 -43.5t-107 43.5t-44 106.5q0 62 44 106t106 44q63 0 107.5 -44t44.5 -106zM259 593q0 37 -26 63.5t-62 26.5t-62 -26.5t-26 -63.5q0 -38 25.5 -64t61.5 -26t62.5 26t26.5 64z" />
    <glyph glyph-name="plusminus" unicode="&#xb1;" horiz-adv-x="632" 
d="M567 251h-215v-171h-70v171h-214v69h214v170h70v-170h215v-69zM567 0h-499v68h499v-68z" />
    <glyph glyph-name="twosuperior" unicode="&#xb2;" horiz-adv-x="457" 
d="M344 434h-306v38l3 3q19 14 43.5 33.5t69.5 60t80 78.5t61.5 82.5t26.5 77.5q0 28 -17.5 45.5t-49.5 17.5q-28 0 -59.5 -13t-49.5 -27l-17 -13l-25 47q8 7 22.5 17.5t60 28.5t91.5 18q64 0 93.5 -30.5t29.5 -75.5q0 -44 -26 -93t-63 -88t-74 -71.5t-63 -49.5l-26 -18h222
z" />
    <glyph glyph-name="threesuperior" unicode="&#xb3;" horiz-adv-x="457" 
d="M46 423l-3 51q120 6 188.5 45.5t68.5 98.5q0 61 -99 61h-11q-5 0 -9 -0.5t-7.5 -1t-5.5 -0.5h-2v47q145 29 145 106q0 40 -61 40q-28 0 -64 -15t-62 -35l-25 46q36 27 85.5 44.5t91.5 17.5q46 0 78 -18t32 -58q0 -45 -31 -76t-74 -48q42 -5 69 -31t27 -67q0 -31 -15 -62
t-49 -64t-103 -55t-164 -26z" />
    <glyph glyph-name="acute" unicode="&#xb4;" horiz-adv-x="235" 
d="M274 724l-155 -147h-74l100 147h129z" />
    <glyph glyph-name="mu" unicode="&#xb5;" horiz-adv-x="584" 
d="M511 490l-56 -420q0 -11 11 -11q9 0 21.5 3t20.5 6l8 3l10 -51q-60 -32 -100 -32q-25 0 -37.5 18t-12.5 46v6q-28 -25 -71.5 -48t-82.5 -23q-31 0 -61 14l-26 -187h-82l83 619l-4 57h92l-41 -301q-4 -32 -4 -48q0 -80 65 -80q39 0 79.5 24t58.5 42l41 306l-4 57h92z" />
    <glyph glyph-name="mu" unicode="&#x3bc;" horiz-adv-x="584" 
d="M511 490l-56 -420q0 -11 11 -11q9 0 21.5 3t20.5 6l8 3l10 -51q-60 -32 -100 -32q-25 0 -37.5 18t-12.5 46v6q-28 -25 -71.5 -48t-82.5 -23q-31 0 -61 14l-26 -187h-82l83 619l-4 57h92l-41 -301q-4 -32 -4 -48q0 -80 65 -80q39 0 79.5 24t58.5 42l41 306l-4 57h92z" />
    <glyph glyph-name="paragraph" unicode="&#xb6;" horiz-adv-x="546" 
d="M523 764l-8 -54h-56l-108 -773q-6 -45 -42.5 -78t-81.5 -33q-5 0 -19 2q-40 -59 -107 -59q-41 0 -68.5 27t-27.5 68q0 51 38.5 89t89.5 38l-8 -54q-26 0 -46 -19.5t-20 -45.5q0 -21 14.5 -35t35.5 -14q24 0 42.5 17t21.5 40l69 498q-71 0 -117.5 44.5t-46.5 115.5
q0 106 72.5 166t180.5 60h192zM405 710h-61l-116 -830h4q24 0 43 17t22 40z" />
    <glyph glyph-name="periodcentered" unicode="&#xb7;" horiz-adv-x="285" 
d="M148 189q-28 0 -47 19.5t-19 47.5q0 27 19 46.5t46 19.5q28 0 47.5 -19t19.5 -47t-19.5 -47.5t-46.5 -19.5z" />
    <glyph glyph-name="cedilla" unicode="&#xb8;" horiz-adv-x="229" 
d="M209 -117q0 -50 -55 -77q-29 -15 -82 -24l-7 32q9 2 22 6t31.5 21t18.5 40q0 32 -47 48l46 79h45l-30 -54q58 -18 58 -71z" />
    <glyph glyph-name="onesuperior" unicode="&#xb9;" horiz-adv-x="457" 
d="M353 434h-289l8 59h118l46 345l-120 -35q-1 9 -5 26.5t-5 22.5q80 27 170 66h47l-57 -425h95z" />
    <glyph glyph-name="ordmasculine" unicode="&#xba;" horiz-adv-x="355" 
d="M322 582q0 -77 -45.5 -138t-121.5 -61q-59 0 -90.5 39.5t-31.5 99.5q0 76 46.5 138t120.5 62q59 0 90.5 -40t31.5 -100zM254 331l-9 -54h-208l8 54h209zM261 579q0 39 -15.5 67t-51.5 28q-47 0 -73.5 -47t-26.5 -98q0 -39 16 -68.5t51 -29.5q48 0 74 47.5t26 100.5z" />
    <glyph glyph-name="guillemotright" unicode="&#xbb;" horiz-adv-x="454" 
d="M422 333l-168 -161l-60 11l138 151l-97 151l60 8zM274 333l-168 -161l-61 11l139 151l-98 151l61 8z" />
    <glyph glyph-name="onequarter" unicode="&#xbc;" horiz-adv-x="923" 
d="M320 -22h-58q352 687 396 775h60q-45 -88 -125.5 -244.5t-147 -286.5t-125.5 -244zM332 248h-289l8 59h117l47 345l-120 -35l-10 49q94 32 169 66h47l-57 -425h95zM786 0h-76l15 110h-213v40q51 63 142.5 179.5t120.5 153.5h76l-42 -314h71l-24 -59h-55zM733 169l16 120
l17 109q-15 -24 -38 -56.5t-38.5 -53t-50 -64t-43.5 -55.5h137z" />
    <glyph glyph-name="onehalf" unicode="&#xbd;" horiz-adv-x="979" 
d="M331 248h-288l7 59h118l46 345l-119 -35l-11 49q86 29 169 66h48l-57 -425h95zM320 -22h-59q352 687 396 775h60q-76 -148 -215 -419.5t-182 -355.5zM876 0h-307v38q2 1 22 16q36 28 74.5 62.5t83.5 80.5t74 92.5t29 80.5q0 28 -17.5 44.5t-48.5 16.5q-26 0 -55 -11
t-44.5 -21t-25.5 -18l-25 48q82 65 176 65q63 0 93.5 -30t30.5 -77q0 -49 -31.5 -103t-80 -99.5t-79.5 -70.5t-56 -42h214z" />
    <glyph glyph-name="threequarters" unicode="&#xbe;" horiz-adv-x="920" 
d="M46 236l-3 51q120 6 188 45t68 99q0 61 -99 61h-10t-9 -0.5t-7.5 -1t-5.5 -0.5h-2v47q142 29 142 106q0 40 -58 40q-29 0 -64.5 -15t-61.5 -35q-15 26 -24 46q36 27 85 44.5t91 17.5q46 0 78.5 -18.5t32.5 -59.5q0 -44 -32 -74.5t-76 -47.5q43 -6 70.5 -31t27.5 -66
q0 -24 -8 -48.5t-31 -52.5t-58 -50t-95.5 -38t-138.5 -19zM783 0h-76l15 110h-213v40l262 333h77l-42 -314h71q-15 -34 -24 -59h-55zM730 169l16 120q2 13 17 109q-40 -64 -171 -229h138zM317 -22h-59l396 775h59z" />
    <glyph glyph-name="questiondown" unicode="&#xbf;" horiz-adv-x="382" 
d="M363 249q0 -50 -25.5 -82t-62 -47t-73 -28t-62 -36.5t-25.5 -62.5q0 -29 23 -46t53 -17q50 0 76 15l17 -67q-38 -13 -90 -13q-71 0 -115 38t-44 109q0 46 18.5 78.5t46.5 48t60 28.5t60 21t46.5 24.5t18.5 40.5q0 38 -37.5 54t-83.5 17l19 67q76 -7 128 -40t52 -102z
M319 475q-28 0 -47 19.5t-19 47.5q0 27 19 46.5t46 19.5q28 0 47.5 -19t19.5 -47t-19.5 -47.5t-46.5 -19.5z" />
    <glyph glyph-name="Agrave" unicode="&#xc0;" horiz-adv-x="605" 
d="M416 763h-73l-127 147h118zM561 0h-97l-47 249h-227l-115 -249h-81l338 724h87zM404 316l-53 286l-130 -286h183z" />
    <glyph glyph-name="Aacute" unicode="&#xc1;" horiz-adv-x="605" 
d="M558 911l-155 -147h-74l100 147h129zM561 0h-97l-47 249h-227l-115 -249h-81l338 724h87zM404 316l-53 286l-130 -286h183z" />
    <glyph glyph-name="Acircumflex" unicode="&#xc2;" horiz-adv-x="605" 
d="M514 763h-65l-64 79l-83 -79h-65l118 150h79zM561 0h-97l-47 249h-227l-115 -249h-81l338 724h87zM404 316l-53 286l-130 -286h183z" />
    <glyph glyph-name="Atilde" unicode="&#xc3;" horiz-adv-x="605" 
d="M529 829q-1 -3 -3.5 -8t-11 -17.5t-19 -22t-27.5 -17.5t-36 -8q-28 0 -68.5 19t-63.5 19q-26 0 -53 -27l-25 20q1 3 3.5 8.5t12 18.5t20.5 23t30 18.5t40 8.5q28 0 67 -19t56 -19q27 0 55 28zM561 0h-97l-47 249h-227l-115 -249h-81l338 724h87zM404 316l-53 286
l-130 -286h183z" />
    <glyph glyph-name="Adieresis" unicode="&#xc4;" horiz-adv-x="605" 
d="M517 815q0 -23 -17 -40t-40 -17t-40 17t-17 40t17 40t40 17q24 0 40.5 -16.5t16.5 -40.5zM354 815q0 -23 -17 -40t-40 -17t-40 17t-17 40t17 40t40 17q24 0 40.5 -16.5t16.5 -40.5zM561 0h-97l-47 249h-227l-115 -249h-81l338 724h87zM404 316l-53 286l-130 -286h183z
" />
    <glyph glyph-name="Aring" unicode="&#xc5;" horiz-adv-x="605" 
d="M451 874q29 -29 29 -70t-29.5 -70t-70.5 -29t-70 29t-29 70t29.5 70.5t70.5 29.5t70 -30zM380 756q20 0 34 14t14 34t-14.5 34t-33.5 14t-33.5 -14t-14.5 -34t14.5 -34t33.5 -14zM561 0h-97l-47 249h-227l-115 -249h-81l338 724h87zM404 316l-53 286l-130 -286h183z" />
    <glyph glyph-name="AE" unicode="&#xc6;" horiz-adv-x="820" 
d="M864 724l-10 -69h-293l-32 -249h241l-10 -68h-242l-35 -269h295l-10 -69h-384l33 247h-199l-161 -247h-83l426 660l-5 64h469zM469 637l-205 -319h163z" />
    <glyph glyph-name="Ccedilla" unicode="&#xc7;" horiz-adv-x="585" 
d="M364 -117q0 -50 -55 -77q-29 -15 -82 -24l-7 32q9 2 22 6t31.5 21t18.5 40q0 32 -47 48l46 79h45l-30 -54q58 -18 58 -71zM620 657l-56 -58q-57 66 -151 66q-67 0 -121 -35t-85.5 -91t-48 -120t-16.5 -127q0 -101 46.5 -164t144.5 -63q93 0 177 62l31 -68
q-97 -69 -219 -69q-133 0 -205 87t-72 221q0 83 25.5 160.5t72 139t119.5 99t161 37.5q131 0 197 -77z" />
    <glyph glyph-name="Egrave" unicode="&#xc8;" horiz-adv-x="500" 
d="M397 763h-73l-127 147h118zM544 724l-10 -69h-313l-32 -250h242l-10 -68h-242l-36 -268h313l-9 -69h-402l88 659v65h411z" />
    <glyph glyph-name="Eacute" unicode="&#xc9;" horiz-adv-x="500" 
d="M535 911l-155 -147h-74l100 147h129zM544 724l-10 -69h-313l-32 -250h242l-10 -68h-242l-36 -268h313l-9 -69h-402l88 659v65h411z" />
    <glyph glyph-name="Ecircumflex" unicode="&#xca;" horiz-adv-x="500" 
d="M491 763h-65l-64 79l-83 -79h-65l118 150h79zM544 724l-10 -69h-313l-32 -250h242l-10 -68h-242l-36 -268h313l-9 -69h-402l88 659v65h411z" />
    <glyph glyph-name="Edieresis" unicode="&#xcb;" horiz-adv-x="500" 
d="M493 815q0 -23 -17 -40t-40 -17t-40 17t-17 40t17 40t40 17q24 0 40.5 -16.5t16.5 -40.5zM330 815q0 -23 -17 -40t-40 -17t-40 17t-17 40t17 40t40 17q24 0 40.5 -16.5t16.5 -40.5zM544 724l-10 -69h-313l-32 -250h242l-10 -68h-242l-36 -268h313l-9 -69h-402l88 659v65
h411z" />
    <glyph glyph-name="Igrave" unicode="&#xcc;" horiz-adv-x="251" 
d="M236 764h-73l-127 147h118zM235 724l-98 -724h-90l89 659v65h99z" />
    <glyph glyph-name="Iacute" unicode="&#xcd;" horiz-adv-x="251" 
d="M368 911l-155 -147h-74l100 147h129zM235 724l-98 -724h-90l89 659v65h99z" />
    <glyph glyph-name="Icircumflex" unicode="&#xce;" horiz-adv-x="251" 
d="M327 763h-65l-64 79l-83 -79h-65l118 150h79zM235 724l-98 -724h-90l89 659v65h99z" />
    <glyph glyph-name="Idieresis" unicode="&#xcf;" horiz-adv-x="251" 
d="M329 816q0 -23 -17 -40t-40 -17t-40 17t-17 40t17 40t40 17q24 0 40.5 -16.5t16.5 -40.5zM166 816q0 -23 -17 -40t-40 -17t-40 17t-17 40t17 40t40 17q24 0 40.5 -16.5t16.5 -40.5zM235 724l-98 -724h-90l89 659v65h99z" />
    <glyph glyph-name="Eth" unicode="&#xd0;" horiz-adv-x="679" 
d="M12 338l10 64h77l35 257v65h244q130 0 195.5 -80.5t65.5 -209.5q0 -83 -22.5 -159t-65.5 -138.5t-114.5 -99.5t-161.5 -37h-230l45 338h-78zM545 430q0 97 -41.5 161t-134.5 64h-146l-34 -253h149l-10 -64h-147l-36 -269h136q67 0 119.5 34.5t83 89.5t46 116t15.5 121z
" />
    <glyph glyph-name="Ntilde" unicode="&#xd1;" horiz-adv-x="674" 
d="M568 830q-1 -3 -3.5 -8t-11 -17.5t-19 -22t-27.5 -17.5t-36 -8q-28 0 -68.5 19t-63.5 19q-26 0 -53 -27l-25 20q1 3 3.5 8.5t12 18.5t20.5 23t30 18.5t40 8.5q28 0 67 -19t56 -19q27 0 55 28zM657 724l-98 -729h-57l-301 617l-82 -612h-74l89 659v65h114l262 -541l74 541
h73z" />
    <glyph glyph-name="Ograve" unicode="&#xd2;" horiz-adv-x="708" 
d="M464 763h-73l-127 147h118zM668 438q0 -85 -23.5 -164t-67.5 -143t-115 -102.5t-158 -38.5q-129 0 -194 84t-65 215q0 65 14 128t44 120.5t72 101t102 69.5t130 26q131 0 196 -82t65 -214zM574 433q0 100 -41.5 166t-134.5 66q-66 0 -118 -35.5t-81.5 -92.5t-44 -120
t-14.5 -126t15 -112.5t56.5 -84.5t105.5 -35q67 0 118.5 35.5t80.5 93t43.5 120t14.5 125.5z" />
    <glyph glyph-name="Oacute" unicode="&#xd3;" horiz-adv-x="708" 
d="M604 910l-155 -147h-74l100 147h129zM668 438q0 -85 -23.5 -164t-67.5 -143t-115 -102.5t-158 -38.5q-129 0 -194 84t-65 215q0 65 14 128t44 120.5t72 101t102 69.5t130 26q131 0 196 -82t65 -214zM574 433q0 100 -41.5 166t-134.5 66q-66 0 -118 -35.5t-81.5 -92.5
t-44 -120t-14.5 -126t15 -112.5t56.5 -84.5t105.5 -35q67 0 118.5 35.5t80.5 93t43.5 120t14.5 125.5z" />
    <glyph glyph-name="Ocircumflex" unicode="&#xd4;" horiz-adv-x="708" 
d="M559 763h-65l-64 79l-83 -79h-65l118 150h79zM668 438q0 -85 -23.5 -164t-67.5 -143t-115 -102.5t-158 -38.5q-129 0 -194 84t-65 215q0 65 14 128t44 120.5t72 101t102 69.5t130 26q131 0 196 -82t65 -214zM574 433q0 100 -41.5 166t-134.5 66q-66 0 -118 -35.5
t-81.5 -92.5t-44 -120t-14.5 -126t15 -112.5t56.5 -84.5t105.5 -35q67 0 118.5 35.5t80.5 93t43.5 120t14.5 125.5z" />
    <glyph glyph-name="Otilde" unicode="&#xd5;" horiz-adv-x="708" 
d="M575 831q-1 -3 -3.5 -8t-11 -17.5t-19 -22t-27.5 -17.5t-36 -8q-28 0 -68.5 19t-63.5 19q-26 0 -53 -27l-25 20q1 3 3.5 8.5t12 18.5t20.5 23t30 18.5t40 8.5q28 0 67 -19t56 -19q27 0 55 28zM668 438q0 -85 -23.5 -164t-67.5 -143t-115 -102.5t-158 -38.5
q-129 0 -194 84t-65 215q0 65 14 128t44 120.5t72 101t102 69.5t130 26q131 0 196 -82t65 -214zM574 433q0 100 -41.5 166t-134.5 66q-66 0 -118 -35.5t-81.5 -92.5t-44 -120t-14.5 -126t15 -112.5t56.5 -84.5t105.5 -35q67 0 118.5 35.5t80.5 93t43.5 120t14.5 125.5z" />
    <glyph glyph-name="Odieresis" unicode="&#xd6;" horiz-adv-x="708" 
d="M552 816q0 -23 -17 -40t-40 -17t-40 17t-17 40t17 40t40 17q24 0 40.5 -16.5t16.5 -40.5zM389 816q0 -23 -17 -40t-40 -17t-40 17t-17 40t17 40t40 17q24 0 40.5 -16.5t16.5 -40.5zM668 438q0 -85 -23.5 -164t-67.5 -143t-115 -102.5t-158 -38.5q-129 0 -194 84t-65 215
q0 65 14 128t44 120.5t72 101t102 69.5t130 26q131 0 196 -82t65 -214zM574 433q0 100 -41.5 166t-134.5 66q-66 0 -118 -35.5t-81.5 -92.5t-44 -120t-14.5 -126t15 -112.5t56.5 -84.5t105.5 -35q67 0 118.5 35.5t80.5 93t43.5 120t14.5 125.5z" />
    <glyph glyph-name="multiply" unicode="&#xd7;" horiz-adv-x="534" 
d="M463 94l-44 -44l-152 152l-152 -152l-44 44l153 152l-153 152l44 44l152 -152l152 152l44 -44l-153 -152z" />
    <glyph glyph-name="Oslash" unicode="&#xd8;" horiz-adv-x="737" 
d="M681 436q0 -82 -23.5 -160t-67.5 -143.5t-115.5 -105.5t-158.5 -40q-97 0 -160 52l-72 -95l-46 33l79 102q-60 77 -60 203q0 64 13.5 127.5t43 122t71 103t101.5 71.5t130 27q93 0 159 -46l57 75l48 -31l-64 -84q65 -78 65 -211zM524 621q-44 43 -114 43
q-67 0 -119 -36.5t-81 -95t-43.5 -122t-14.5 -126.5q0 -74 22 -126zM587 433q0 80 -27 138l-354 -465q47 -51 123 -51q67 0 119 36t81 94t43.5 121.5t14.5 126.5z" />
    <glyph glyph-name="Ugrave" unicode="&#xd9;" horiz-adv-x="638" 
d="M429 763h-73l-127 147h118zM623 724l-64 -467q-16 -121 -86.5 -194t-204.5 -73q-117 0 -169.5 55.5t-52.5 146.5q0 16 4 52l56 416v64h100l-65 -481q-3 -24 -3 -43q0 -65 34 -103t108 -38q90 0 142 53t64 146l63 466h74z" />
    <glyph glyph-name="Uacute" unicode="&#xda;" horiz-adv-x="638" 
d="M577 910l-155 -147h-74l100 147h129zM623 724l-64 -467q-16 -121 -86.5 -194t-204.5 -73q-117 0 -169.5 55.5t-52.5 146.5q0 16 4 52l56 416v64h100l-65 -481q-3 -24 -3 -43q0 -65 34 -103t108 -38q90 0 142 53t64 146l63 466h74z" />
    <glyph glyph-name="Ucircumflex" unicode="&#xdb;" horiz-adv-x="638" 
d="M519 763h-65l-64 79l-83 -79h-65l118 150h79zM623 724l-64 -467q-16 -121 -86.5 -194t-204.5 -73q-117 0 -169.5 55.5t-52.5 146.5q0 16 4 52l56 416v64h100l-65 -481q-3 -24 -3 -43q0 -65 34 -103t108 -38q90 0 142 53t64 146l63 466h74z" />
    <glyph glyph-name="Udieresis" unicode="&#xdc;" horiz-adv-x="638" 
d="M521 816q0 -23 -17 -40t-40 -17t-40 17t-17 40t17 40t40 17q24 0 40.5 -16.5t16.5 -40.5zM358 816q0 -23 -17 -40t-40 -17t-40 17t-17 40t17 40t40 17q24 0 40.5 -16.5t16.5 -40.5zM623 724l-64 -467q-16 -121 -86.5 -194t-204.5 -73q-117 0 -169.5 55.5t-52.5 146.5
q0 16 4 52l56 416v64h100l-65 -481q-3 -24 -3 -43q0 -65 34 -103t108 -38q90 0 142 53t64 146l63 466h74z" />
    <glyph glyph-name="Yacute" unicode="&#xdd;" horiz-adv-x="477" 
d="M492 910l-155 -147h-74l100 147h129zM538 724l-248 -366l-48 -358h-91l48 359l-157 365h103l122 -280l187 280h84z" />
    <glyph glyph-name="Thorn" unicode="&#xde;" horiz-adv-x="539" 
d="M236 724l-15 -114h96q96 0 154 -43t58 -138q0 -116 -73.5 -186.5t-191.5 -70.5h-104l-23 -172h-91l89 659v65h101zM435 418q0 60 -33 91.5t-93 31.5h-99l-40 -302h100q75 0 120 51.5t45 127.5z" />
    <glyph glyph-name="germandbls" unicode="&#xdf;" horiz-adv-x="541" 
d="M489 181q0 -92 -58.5 -143t-150.5 -51q-55 0 -98 21l24 58q39 -14 75 -14q53 0 87 34.5t34 88.5q0 30 -16.5 56t-40 44.5t-47 36t-40 38.5t-16.5 43q0 30 52 63q13 8 29 19q77 51 77 121q0 32 -17 51t-48 19q-62 0 -95 -52t-43 -126l-75 -549q-23 -169 -165 -169
q-62 0 -112 32l40 57q22 -16 34 -20.5t36 -4.5q74 0 89 114l65 479h-72l8 63h72q15 106 69.5 174.5t155.5 68.5q62 0 102 -35.5t40 -97.5q0 -101 -86 -153q-1 0 -58 -31q-24 -11 -24 -19q0 -10 25 -26q6 -4 26.5 -17t32.5 -21q89 -63 89 -152z" />
    <glyph glyph-name="agrave" unicode="&#xe0;" 
d="M500 12q-42 -23 -75 -23q-35 0 -56.5 24t-22.5 61h-4q-57 -87 -148 -87q-77 0 -117 53.5t-40 137.5q0 55 19 112t52.5 104.5t84 78t107.5 30.5q72 0 109 -47l21 39h44l-56 -380q-2 -14 -2 -21q0 -40 33 -40q16 0 40 8zM382 403q-33 38 -79 38q-56 0 -97.5 -47.5
t-58.5 -106.5t-17 -113q0 -50 18.5 -87.5t61.5 -37.5q44 0 77.5 39t52 93.5t28.5 125.5zM363 577h-73l-127 147h118z" />
    <glyph glyph-name="aacute" unicode="&#xe1;" 
d="M501 724l-155 -147h-74l100 147h129zM500 12q-42 -23 -75 -23q-35 0 -56.5 24t-22.5 61h-4q-57 -87 -148 -87q-77 0 -117 53.5t-40 137.5q0 55 19 112t52.5 104.5t84 78t107.5 30.5q72 0 109 -47l21 39h44l-56 -380q-2 -14 -2 -21q0 -40 33 -40q16 0 40 8zM382 403
q-33 38 -79 38q-56 0 -97.5 -47.5t-58.5 -106.5t-17 -113q0 -50 18.5 -87.5t61.5 -37.5q44 0 77.5 39t52 93.5t28.5 125.5z" />
    <glyph glyph-name="acircumflex" unicode="&#xe2;" 
d="M458 574h-65l-64 79l-83 -79h-65l118 150h79zM500 12q-42 -23 -75 -23q-35 0 -56.5 24t-22.5 61h-4q-57 -87 -148 -87q-77 0 -117 53.5t-40 137.5q0 55 19 112t52.5 104.5t84 78t107.5 30.5q72 0 109 -47l21 39h44l-56 -380q-2 -14 -2 -21q0 -40 33 -40q16 0 40 8z
M382 403q-33 38 -79 38q-56 0 -97.5 -47.5t-58.5 -106.5t-17 -113q0 -50 18.5 -87.5t61.5 -37.5q44 0 77.5 39t52 93.5t28.5 125.5z" />
    <glyph glyph-name="atilde" unicode="&#xe3;" 
d="M473 688q-1 -3 -3.5 -8t-11 -17.5t-19 -22t-27.5 -17.5t-36 -8q-28 0 -68.5 19t-63.5 19q-26 0 -53 -27l-25 20q1 3 3.5 8.5t12 18.5t20.5 23t30 18.5t40 8.5q28 0 67 -19t56 -19q27 0 55 28zM500 12q-42 -23 -75 -23q-35 0 -56.5 24t-22.5 61h-4q-57 -87 -148 -87
q-77 0 -117 53.5t-40 137.5q0 55 19 112t52.5 104.5t84 78t107.5 30.5q72 0 109 -47l21 39h44l-56 -380q-2 -14 -2 -21q0 -40 33 -40q16 0 40 8zM382 403q-33 38 -79 38q-56 0 -97.5 -47.5t-58.5 -106.5t-17 -113q0 -50 18.5 -87.5t61.5 -37.5q44 0 77.5 39t52 93.5
t28.5 125.5z" />
    <glyph glyph-name="adieresis" unicode="&#xe4;" 
d="M468 671q0 -23 -17 -40t-40 -17t-40 17t-17 40t17 40t40 17q24 0 40.5 -16.5t16.5 -40.5zM305 671q0 -23 -17 -40t-40 -17t-40 17t-17 40t17 40t40 17q24 0 40.5 -16.5t16.5 -40.5zM500 12q-42 -23 -75 -23q-35 0 -56.5 24t-22.5 61h-4q-57 -87 -148 -87q-77 0 -117 53.5
t-40 137.5q0 55 19 112t52.5 104.5t84 78t107.5 30.5q72 0 109 -47l21 39h44l-56 -380q-2 -14 -2 -21q0 -40 33 -40q16 0 40 8zM382 403q-33 38 -79 38q-56 0 -97.5 -47.5t-58.5 -106.5t-17 -113q0 -50 18.5 -87.5t61.5 -37.5q44 0 77.5 39t52 93.5t28.5 125.5z" />
    <glyph glyph-name="aring" unicode="&#xe5;" 
d="M404 720q29 -29 29 -70t-29.5 -70t-70.5 -29t-70 29t-29 70t29.5 70.5t70.5 29.5t70 -30zM333 602q20 0 34 14t14 34t-14.5 34t-33.5 14t-33.5 -14t-14.5 -34t14.5 -34t33.5 -14zM500 12q-42 -23 -75 -23q-35 0 -56.5 24t-22.5 61h-4q-57 -87 -148 -87q-77 0 -117 53.5
t-40 137.5q0 55 19 112t52.5 104.5t84 78t107.5 30.5q72 0 109 -47l21 39h44l-56 -380q-2 -14 -2 -21q0 -40 33 -40q16 0 40 8zM382 403q-33 38 -79 38q-56 0 -97.5 -47.5t-58.5 -106.5t-17 -113q0 -50 18.5 -87.5t61.5 -37.5q44 0 77.5 39t52 93.5t28.5 125.5z" />
    <glyph glyph-name="ae" unicode="&#xe6;" horiz-adv-x="714" 
d="M677 399q0 -91 -97 -150q-73 -44 -208 -46v-5q0 -60 30 -100t87 -40q75 0 139 45l29 -59q-81 -56 -173 -56q-97 0 -152 66q-57 -67 -139 -67q-77 0 -117 56t-40 142q0 69 31 142t92 125.5t135 52.5q73 0 111 -51q62 51 145 51q55 0 91 -26t36 -80zM593 387v4
q-2 52 -56 52q-58 0 -106.5 -60t-53.5 -122q28 0 60.5 6t69.5 18.5t61.5 39t24.5 62.5zM365 416q-33 27 -75 27q-38 0 -70 -27.5t-51 -69t-29.5 -86t-10.5 -82.5q0 -49 18 -88.5t59 -39.5q57 0 97 52q-17 42 -17 91q0 130 79 223z" />
    <glyph glyph-name="ccedilla" unicode="&#xe7;" horiz-adv-x="421" 
d="M282 -117q0 -50 -55 -77q-29 -15 -82 -24l-7 32q9 2 22 6t31.5 21t18.5 40q0 32 -47 48l46 79h45l-30 -54q58 -18 58 -71zM430 452l-50 -55q-44 44 -101 44q-50 0 -87 -40t-53 -91t-16 -100q0 -62 27.5 -108t83.5 -46q34 0 60 10t61 34l28 -64q-49 -27 -82 -38t-80 -11
q-89 0 -137 59t-48 151q0 125 71.5 215.5t189.5 90.5q76 0 133 -51z" />
    <glyph glyph-name="egrave" unicode="&#xe8;" horiz-adv-x="464" 
d="M428 397q0 -91 -98 -149q-74 -44 -208 -46v-5q0 -59 30 -99.5t87 -40.5q73 0 139 45l29 -59q-79 -56 -173 -56q-90 0 -143.5 57t-53.5 148q0 121 73 216t190 95q56 0 92 -26t36 -80zM344 390q0 25 -15.5 38t-41.5 13q-59 0 -106.5 -59.5t-53.5 -121.5q94 0 148 33
q27 17 48 43.5t21 53.5zM340 577h-73l-127 147h118z" />
    <glyph glyph-name="eacute" unicode="&#xe9;" horiz-adv-x="464" 
d="M484 724l-155 -147h-74l100 147h129zM428 397q0 -91 -98 -149q-74 -44 -208 -46v-5q0 -59 30 -99.5t87 -40.5q73 0 139 45l29 -59q-79 -56 -173 -56q-90 0 -143.5 57t-53.5 148q0 121 73 216t190 95q56 0 92 -26t36 -80zM344 390q0 25 -15.5 38t-41.5 13
q-59 0 -106.5 -59.5t-53.5 -121.5q94 0 148 33q27 17 48 43.5t21 53.5z" />
    <glyph glyph-name="ecircumflex" unicode="&#xea;" horiz-adv-x="464" 
d="M423 574h-65l-64 79l-83 -79h-65l118 150h79zM428 397q0 -91 -98 -149q-74 -44 -208 -46v-5q0 -59 30 -99.5t87 -40.5q73 0 139 45l29 -59q-79 -56 -173 -56q-90 0 -143.5 57t-53.5 148q0 121 73 216t190 95q56 0 92 -26t36 -80zM344 390q0 25 -15.5 38t-41.5 13
q-59 0 -106.5 -59.5t-53.5 -121.5q94 0 148 33q27 17 48 43.5t21 53.5z" />
    <glyph glyph-name="edieresis" unicode="&#xeb;" horiz-adv-x="464" 
d="M423 671q0 -23 -17 -40t-40 -17t-40 17t-17 40t17 40t40 17q24 0 40.5 -16.5t16.5 -40.5zM260 671q0 -23 -17 -40t-40 -17t-40 17t-17 40t17 40t40 17q24 0 40.5 -16.5t16.5 -40.5zM428 397q0 -91 -98 -149q-74 -44 -208 -46v-5q0 -59 30 -99.5t87 -40.5q73 0 139 45
l29 -59q-79 -56 -173 -56q-90 0 -143.5 57t-53.5 148q0 121 73 216t190 95q56 0 92 -26t36 -80zM344 390q0 25 -15.5 38t-41.5 13q-59 0 -106.5 -59.5t-53.5 -121.5q94 0 148 33q27 17 48 43.5t21 53.5z" />
    <glyph glyph-name="igrave" unicode="&#xec;" horiz-adv-x="227" 
d="M186 490l-58 -432v-58h-88l58 433v57h88zM189 577h-73l-127 147h118z" />
    <glyph glyph-name="iacute" unicode="&#xed;" horiz-adv-x="227" 
d="M186 490l-58 -432v-58h-88l58 433v57h88zM334 724l-155 -147h-74l100 147h129z" />
    <glyph glyph-name="icircumflex" unicode="&#xee;" horiz-adv-x="227" 
d="M287 574h-65l-64 79l-83 -79h-65l118 150h79zM186 490l-58 -432v-58h-88l58 433v57h88z" />
    <glyph glyph-name="idieresis" unicode="&#xef;" horiz-adv-x="227" 
d="M186 490l-58 -432v-58h-88l58 433v57h88zM288 671q0 -23 -17 -40t-40 -17t-40 17t-17 40t17 40t40 17q24 0 40.5 -16.5t16.5 -40.5zM125 671q0 -23 -17 -40t-40 -17t-40 17t-17 40t17 40t40 17q24 0 40.5 -16.5t16.5 -40.5z" />
    <glyph glyph-name="eth" unicode="&#xf0;" horiz-adv-x="508" 
d="M444 729l-103 -56q130 -198 130 -371q0 -80 -29.5 -150.5t-88 -116t-133.5 -45.5q-87 0 -135 59t-48 150q0 121 71 213.5t180 92.5q32 0 63 -13q-30 81 -72 148l-108 -58l-25 40l108 58q-18 26 -47 59l57 33q38 -44 49 -60l110 59zM383 247q3 21 3 46q0 64 -25 108
t-81 44q-44 0 -77 -28t-49.5 -70.5t-24.5 -80t-8 -66.5q0 -63 25 -106.5t81 -43.5q47 0 82.5 34t51.5 75.5t22 87.5z" />
    <glyph glyph-name="ntilde" unicode="&#xf1;" horiz-adv-x="494" 
d="M461 693q-1 -3 -3.5 -8t-11 -17.5t-19 -22t-27.5 -17.5t-36 -8q-28 0 -68.5 19t-63.5 19q-26 0 -53 -27l-25 20q1 3 3.5 8.5t12 18.5t20.5 23t30 18.5t40 8.5q28 0 67 -19t56 -19q27 0 55 28zM451 329l-36 -271v-58h-88l41 303q5 43 5 54q0 74 -65 74q-62 0 -138 -66
l-49 -365h-80l47 350q4 25 4 52q0 26 -4 48t-8 31l-4 9l88 10q7 -25 9 -72q84 75 157 75q124 0 124 -130q0 -20 -3 -44z" />
    <glyph glyph-name="ograve" unicode="&#xf2;" horiz-adv-x="508" 
d="M472 294q0 -121 -69.5 -214t-182.5 -93q-89 0 -136 60.5t-47 149.5q0 78 28.5 146.5t87 114t135.5 45.5q90 0 137 -60t47 -149zM387 293q0 60 -25.5 104t-80.5 44q-52 0 -90 -41.5t-53.5 -93.5t-15.5 -104q0 -59 26 -106t79 -47q41 0 73 24t50 62t27.5 79t9.5 79z
M335 577h-73l-127 147h118z" />
    <glyph glyph-name="oacute" unicode="&#xf3;" horiz-adv-x="508" 
d="M483 724l-155 -147h-74l100 147h129zM472 294q0 -121 -69.5 -214t-182.5 -93q-89 0 -136 60.5t-47 149.5q0 78 28.5 146.5t87 114t135.5 45.5q90 0 137 -60t47 -149zM387 293q0 60 -25.5 104t-80.5 44q-52 0 -90 -41.5t-53.5 -93.5t-15.5 -104q0 -59 26 -106t79 -47
q41 0 73 24t50 62t27.5 79t9.5 79z" />
    <glyph glyph-name="ocircumflex" unicode="&#xf4;" horiz-adv-x="508" 
d="M428 574h-65l-64 79l-83 -79h-65l118 150h79zM472 294q0 -121 -69.5 -214t-182.5 -93q-89 0 -136 60.5t-47 149.5q0 78 28.5 146.5t87 114t135.5 45.5q90 0 137 -60t47 -149zM387 293q0 60 -25.5 104t-80.5 44q-52 0 -90 -41.5t-53.5 -93.5t-15.5 -104q0 -59 26 -106
t79 -47q41 0 73 24t50 62t27.5 79t9.5 79z" />
    <glyph glyph-name="otilde" unicode="&#xf5;" horiz-adv-x="508" 
d="M454 691q-1 -3 -3.5 -8t-11 -17.5t-19 -22t-27.5 -17.5t-36 -8q-28 0 -68.5 19t-63.5 19q-26 0 -53 -27l-25 20q1 3 3.5 8.5t12 18.5t20.5 23t30 18.5t40 8.5q28 0 67 -19t56 -19q27 0 55 28zM472 294q0 -121 -69.5 -214t-182.5 -93q-89 0 -136 60.5t-47 149.5
q0 78 28.5 146.5t87 114t135.5 45.5q90 0 137 -60t47 -149zM387 293q0 60 -25.5 104t-80.5 44q-52 0 -90 -41.5t-53.5 -93.5t-15.5 -104q0 -59 26 -106t79 -47q41 0 73 24t50 62t27.5 79t9.5 79z" />
    <glyph glyph-name="odieresis" unicode="&#xf6;" horiz-adv-x="508" 
d="M450 669q0 -23 -17 -40t-40 -17t-40 17t-17 40t17 40t40 17q24 0 40.5 -16.5t16.5 -40.5zM287 669q0 -23 -17 -40t-40 -17t-40 17t-17 40t17 40t40 17q24 0 40.5 -16.5t16.5 -40.5zM472 294q0 -121 -69.5 -214t-182.5 -93q-89 0 -136 60.5t-47 149.5q0 78 28.5 146.5
t87 114t135.5 45.5q90 0 137 -60t47 -149zM387 293q0 60 -25.5 104t-80.5 44q-52 0 -90 -41.5t-53.5 -93.5t-15.5 -104q0 -59 26 -106t79 -47q41 0 73 24t50 62t27.5 79t9.5 79z" />
    <glyph glyph-name="divide" unicode="&#xf7;" horiz-adv-x="630" 
d="M377 400q0 -25 -18 -42.5t-43 -17.5t-43 17.5t-18 42.5q0 26 17.5 43.5t43.5 17.5t43.5 -17.5t17.5 -43.5zM567 210h-499v66h499v-66zM316 147q26 0 43.5 -17.5t17.5 -42.5t-17.5 -42.5t-43.5 -17.5t-43.5 17.5t-17.5 42.5t18 42.5t43 17.5z" />
    <glyph glyph-name="oslash" unicode="&#xf8;" horiz-adv-x="555" 
d="M502 522l-59 -79q45 -56 45 -144q0 -74 -28 -144t-87.5 -118.5t-137.5 -48.5q-62 0 -102 30l-65 -85l-42 30l70 91q-43 55 -43 142q0 54 17.5 108.5t48.5 99.5t80 73.5t107 28.5t99 -26l52 70zM362 420q-26 23 -63 23q-52 0 -91 -40.5t-55.5 -93.5t-16.5 -105
q0 -51 12 -76zM405 296q0 43 -11 76l-218 -293q26 -28 65 -28q54 0 93 42t55 96t16 107z" />
    <glyph glyph-name="ugrave" unicode="&#xf9;" horiz-adv-x="510" 
d="M483 11q-44 -23 -75 -23q-29 0 -54 22t-25 63h-4q-57 -86 -157 -86q-65 0 -96.5 35t-31.5 97q0 19 3 40l38 274v57h87l-43 -319q-3 -22 -3 -41q0 -81 67 -81q50 0 94.5 52.5t62.5 177.5l22 153v58h88l-51 -369q-2 -20 -2 -26q0 -42 28 -42q9 0 19 2.5t16 4.5l6 3z
M312 577h-73l-127 147h118z" />
    <glyph glyph-name="uacute" unicode="&#xfa;" horiz-adv-x="510" 
d="M466 724l-155 -147h-74l100 147h129zM483 11q-44 -23 -75 -23q-29 0 -54 22t-25 63h-4q-57 -86 -157 -86q-65 0 -96.5 35t-31.5 97q0 19 3 40l38 274v57h87l-43 -319q-3 -22 -3 -41q0 -81 67 -81q50 0 94.5 52.5t62.5 177.5l22 153v58h88l-51 -369q-2 -20 -2 -26
q0 -42 28 -42q9 0 19 2.5t16 4.5l6 3z" />
    <glyph glyph-name="ucircumflex" unicode="&#xfb;" horiz-adv-x="510" 
d="M411 574h-65l-64 79l-83 -79h-65l118 150h79zM483 11q-44 -23 -75 -23q-29 0 -54 22t-25 63h-4q-57 -86 -157 -86q-65 0 -96.5 35t-31.5 97q0 19 3 40l38 274v57h87l-43 -319q-3 -22 -3 -41q0 -81 67 -81q50 0 94.5 52.5t62.5 177.5l22 153v58h88l-51 -369q-2 -20 -2 -26
q0 -42 28 -42q9 0 19 2.5t16 4.5l6 3z" />
    <glyph glyph-name="udieresis" unicode="&#xfc;" horiz-adv-x="510" 
d="M425 671q0 -23 -17 -40t-40 -17t-40 17t-17 40t17 40t40 17q24 0 40.5 -16.5t16.5 -40.5zM262 671q0 -23 -17 -40t-40 -17t-40 17t-17 40t17 40t40 17q24 0 40.5 -16.5t16.5 -40.5zM483 11q-44 -23 -75 -23q-29 0 -54 22t-25 63h-4q-57 -86 -157 -86q-65 0 -96.5 35
t-31.5 97q0 19 3 40l38 274v57h87l-43 -319q-3 -22 -3 -41q0 -81 67 -81q50 0 94.5 52.5t62.5 177.5l22 153v58h88l-51 -369q-2 -20 -2 -26q0 -42 28 -42q9 0 19 2.5t16 4.5l6 3z" />
    <glyph glyph-name="yacute" unicode="&#xfd;" horiz-adv-x="409" 
d="M454 724l-155 -147h-74l100 147h129zM451 490l-248 -541q-83 -179 -249 -179q-60 0 -106 27l38 60q45 -21 73 -21q56 0 102 34t74 100l14 33l-104 487h85l73 -372l172 372h76z" />
    <glyph glyph-name="thorn" unicode="&#xfe;" horiz-adv-x="518" 
d="M224 764l-45 -332q54 71 142 71q77 0 117.5 -55.5t40.5 -139.5q0 -77 -31 -150t-91 -122t-134 -49q-27 0 -55.5 10.5t-43.5 24.5l-25 -187v-58h-89l126 930v57h88zM386 314q0 51 -19 89t-66 38q-120 0 -156 -263q-3 -18 -6 -49.5t-5 -40.5q15 -17 41 -28t51 -11
q74 0 117 85t43 180z" />
    <glyph glyph-name="ydieresis" unicode="&#xff;" horiz-adv-x="409" 
d="M401 670q0 -23 -17 -40t-40 -17t-40 17t-17 40t17 40t40 17q24 0 40.5 -16.5t16.5 -40.5zM238 670q0 -23 -17 -40t-40 -17t-40 17t-17 40t17 40t40 17q24 0 40.5 -16.5t16.5 -40.5zM451 490l-248 -541q-83 -179 -249 -179q-60 0 -106 27l38 60q45 -21 73 -21q56 0 102 34
t74 100l14 33l-104 487h85l73 -372l172 372h76z" />
    <glyph glyph-name="dotlessi" unicode="&#x131;" horiz-adv-x="227" 
d="M186 490l-58 -432v-58h-88l58 433v57h88z" />
    <glyph glyph-name="Lslash" unicode="&#x141;" horiz-adv-x="471" 
d="M388 417l-208 -95l-34 -253h289l-10 -69h-380l37 278l-78 -36l10 68l77 35l43 314v65h100l-45 -334l209 95z" />
    <glyph glyph-name="lslash" unicode="&#x142;" horiz-adv-x="227" 
d="M241 371l-76 -34l-37 -279v-58h-89l40 298l-77 -34l10 68l76 34l47 341v57h88l-49 -359l77 34z" />
    <glyph glyph-name="OE" unicode="&#x152;" horiz-adv-x="978" 
d="M616 724h403l-10 -69h-313l-32 -250h242l-10 -68h-242l-36 -268h313l-9 -69h-402l10 77q-93 -87 -226 -87q-129 0 -194 84t-65 215q0 65 14 128t44 120.5t72 101t102 69.5t130 26q131 0 199 -86zM574 433q0 100 -41.5 166t-134.5 66q-66 0 -118 -35.5t-81.5 -92.5
t-44 -120t-14.5 -126t15 -112.5t56.5 -84.5t105.5 -35q67 0 118.5 35.5t80.5 93t43.5 120t14.5 125.5z" />
    <glyph glyph-name="oe" unicode="&#x153;" horiz-adv-x="801" 
d="M764 397q0 -47 -27 -85.5t-70 -64.5q-74 -44 -208 -46v-5q0 -59 30 -99.5t87 -40.5q73 0 139 45l29 -59q-79 -56 -173 -56q-118 0 -170 93q-71 -93 -181 -93q-88 0 -136 60.5t-48 150.5q0 74 29 143t88 116t135 47q112 0 159 -96q75 96 190 96q56 0 91.5 -26t35.5 -80z
M681 393q0 19 -14.5 33.5t-40.5 14.5q-47 0 -86.5 -37.5t-57 -78t-17.5 -66.5q97 0 156.5 41t59.5 93zM386 293q0 59 -25 103.5t-80 44.5q-40 0 -72 -24t-50 -61.5t-27.5 -77t-9.5 -76.5q0 -58 25.5 -105.5t79.5 -47.5q41 0 73 24.5t50 63t27 79t9 77.5z" />
    <glyph glyph-name="Scaron" unicode="&#x160;" horiz-adv-x="507" 
d="M484 935l-123 -171h-81l-73 171h65l58 -99l87 99h67zM498 687l-42 -68q-57 46 -125 46q-57 0 -99 -31t-42 -84q0 -32 20 -58t49.5 -43t64.5 -38.5t64.5 -44t49.5 -60t20 -85.5q0 -103 -73 -167t-178 -64q-98 0 -195 54l42 75q47 -34 78 -47t79 -13q60 0 106.5 45
t46.5 104q0 42 -27.5 73t-66.5 52.5t-78 45t-66.5 63t-27.5 93.5q0 94 70 146.5t170 52.5q90 0 160 -47z" />
    <glyph glyph-name="scaron" unicode="&#x161;" horiz-adv-x="376" 
d="M396 724l-123 -171h-81l-73 171h65l58 -99l87 99h67zM361 470l-34 -60q-43 31 -92 31q-38 0 -66 -20.5t-28 -56.5q0 -22 19.5 -40.5t47.5 -34t56 -33.5t47.5 -48t19.5 -69q0 -72 -52 -112t-126 -40q-78 0 -147 41l43 61q48 -40 101 -40q40 0 69 21t29 60q0 26 -19.5 46.5
t-47 36t-55.5 32.5t-47.5 45t-19.5 64q0 73 53 111t128 38q66 0 121 -33z" />
    <glyph glyph-name="Ydieresis" unicode="&#x178;" horiz-adv-x="477" 
d="M443 816q0 -23 -17 -40t-40 -17t-40 17t-17 40t17 40t40 17q24 0 40.5 -16.5t16.5 -40.5zM280 816q0 -23 -17 -40t-40 -17t-40 17t-17 40t17 40t40 17q24 0 40.5 -16.5t16.5 -40.5zM538 724l-248 -366l-48 -358h-91l48 359l-157 365h103l122 -280l187 280h84z" />
    <glyph glyph-name="Zcaron" unicode="&#x17d;" horiz-adv-x="532" 
d="M492 935l-123 -171h-81l-73 171h65l58 -99l87 99h67zM546 724l-9 -67l-438 -588h371l-16 -69h-471l9 67l438 588h-338l9 69h445z" />
    <glyph glyph-name="zcaron" unicode="&#x17e;" horiz-adv-x="433" 
d="M425 724l-123 -171h-81l-73 171h65l58 -99l87 99h67zM423 443l-297 -380h256l-10 -63h-354v48l295 379h-222l9 63h323v-47z" />
    <glyph glyph-name="florin" unicode="&#x192;" horiz-adv-x="520" 
d="M632 732l-47 -58q-27 35 -69 35q-38 0 -68.5 -18.5t-51 -54t-33 -68t-24.5 -78.5h113l-18 -63h-112l-134 -489q-47 -168 -188 -168q-66 0 -108 32l46 56l27 -18q13 -6 40 -6q74 0 106 114l130 479h-71l18 63h72q12 48 25.5 85t35 75.5t48 64t64.5 41.5t84 16
q65 0 115 -40z" />
    <glyph glyph-name="circumflex" unicode="&#x2c6;" horiz-adv-x="254" 
d="M266 574h-65l-64 79l-83 -79h-65l118 150h79z" />
    <glyph glyph-name="caron" unicode="&#x2c7;" horiz-adv-x="264" 
d="M289 724l-123 -171h-81l-73 171h65l58 -99l87 99h67z" />
    <glyph glyph-name="breve" unicode="&#x2d8;" horiz-adv-x="256" 
d="M280 724q-35 -135 -151 -135q-53 0 -83.5 31.5t-30.5 90.5v13h47q5 -67 75 -67t96 67h47z" />
    <glyph glyph-name="dotaccent" unicode="&#x2d9;" horiz-adv-x="201" 
d="M150 689q29 0 44.5 -17.5t15.5 -41.5t-21.5 -46.5t-54.5 -22.5q-29 0 -43.5 17.5t-14.5 39.5q0 24 21 47.5t53 23.5z" />
    <glyph glyph-name="ring" unicode="&#x2da;" horiz-adv-x="221" 
d="M212 720q29 -29 29 -70t-29.5 -70t-70.5 -29t-70 29t-29 70t29.5 70.5t70.5 29.5t70 -30zM141 602q20 0 34 14t14 34t-14.5 34t-33.5 14t-33.5 -14t-14.5 -34t14.5 -34t33.5 -14z" />
    <glyph glyph-name="ogonek" unicode="&#x2db;" horiz-adv-x="294" 
d="M252 11q-134 -62 -134 -122q0 -35 41 -35q23 0 81 32l11 -37q-72 -50 -134 -50q-40 0 -60.5 19t-20.5 50q0 37 36 71.5t78.5 54t83.5 29.5z" />
    <glyph glyph-name="tilde" unicode="&#x2dc;" horiz-adv-x="272" 
d="M289 648q-1 -3 -3.5 -8t-11 -17.5t-19 -22t-27.5 -17.5t-36 -8q-28 0 -68.5 19t-63.5 19q-26 0 -53 -27l-25 20q1 3 3.5 8.5t12 18.5t20.5 23t30 18.5t40 8.5q28 0 67 -19t56 -19q27 0 55 28z" />
    <glyph glyph-name="hungarumlaut" unicode="&#x2dd;" horiz-adv-x="308" 
d="M337 724l-155 -167h-60l102 167h113zM202 724l-154 -167h-60l101 167h113z" />
    <glyph glyph-name="pi" unicode="&#x3c0;" horiz-adv-x="669" 
d="M628 512l18 -41q-41 -45 -116 -49q-81 -181 -81 -291q0 -73 46 -73q19 0 42 10q3 -7 8 -23t8 -24q-41 -33 -92 -33q-49 0 -70.5 37t-21.5 93q0 158 90 304h-162l-13 -91q-6 -43 -11 -72.5t-15 -71t-24 -71.5t-33.5 -60.5t-48.5 -52.5t-65 -34q-9 21 -18 37q44 24 73 68.5
t36 97.5l29 214q1 7 5 18.5t5 17.5q-36 -3 -63.5 -24.5t-39.5 -55.5q-30 8 -43 13q11 61 57.5 98t115.5 37h287q58 0 97 22z" />
    <glyph glyph-name="endash" unicode="&#x2013;" horiz-adv-x="551" 
d="M523 285l-9 -57h-486l9 57h486z" />
    <glyph glyph-name="emdash" unicode="&#x2014;" horiz-adv-x="901" 
d="M873 285l-9 -57h-836l9 57h836z" />
    <glyph glyph-name="quoteleft" unicode="&#x2018;" horiz-adv-x="191" 
d="M198 693l-7 -6q-51 -44 -51 -68q0 -7 20 -29t20 -43q0 -31 -20 -49t-49 -18q-31 0 -48.5 20.5t-17.5 50.5q0 50 35.5 95.5t87.5 79.5z" />
    <glyph glyph-name="quoteright" unicode="&#x2019;" horiz-adv-x="261" 
d="M216 654q0 -50 -36 -95.5t-87 -79.5l-30 33q2 1 13.5 11t16.5 15t13 14.5t11.5 17.5t3.5 16q0 7 -20 29t-20 43q0 31 20 48.5t49 17.5q31 0 48.5 -20t17.5 -50z" />
    <glyph glyph-name="quotesinglbase" unicode="&#x201a;" horiz-adv-x="252" 
d="M171 50q0 -49 -36 -95t-88 -80l-29 33q2 2 11 9.5t13 11.5t11.5 12t11.5 13.5t7 13t3 14.5t-20 29t-20 43q0 31 20.5 48.5t49.5 17.5q30 0 48 -20t18 -50z" />
    <glyph glyph-name="quotedblleft" unicode="&#x201c;" horiz-adv-x="381" 
d="M198 693l-7 -6q-51 -44 -51 -68q0 -7 20 -29t20 -43q0 -31 -20 -49t-49 -18q-31 0 -48.5 20.5t-17.5 50.5q0 50 35.5 95.5t87.5 79.5zM388 693l-7 -6q-51 -44 -51 -68q0 -7 20 -29t20 -43q0 -31 -20 -49t-49 -18q-31 0 -48.5 20.5t-17.5 50.5q0 50 35.5 95.5t87.5 79.5z
" />
    <glyph glyph-name="quotedblright" unicode="&#x201d;" horiz-adv-x="451" 
d="M406 654q0 -49 -36 -95t-88 -80l-29 33q2 2 11 9.5t13 11.5t11.5 12t11.5 13.5t7 13t3 14.5t-20 29t-20 43q0 31 20.5 48.5t49.5 17.5q30 0 48 -20t18 -50zM216 654q0 -50 -36 -95.5t-87 -79.5l-30 33q2 1 13.5 11t16.5 15t13 14.5t11.5 17.5t3.5 16q0 7 -20 29t-20 43
q0 31 20 48.5t49 17.5q31 0 48.5 -20t17.5 -50z" />
    <glyph glyph-name="quotedblbase" unicode="&#x201e;" horiz-adv-x="440" 
d="M170 50q0 -50 -36 -95.5t-87 -79.5l-30 33l6 5q52 42 52 69q0 7 -20 29t-20 43q0 31 20 48.5t49 17.5q31 0 48.5 -20t17.5 -50zM360 50q0 -50 -36 -95.5t-87 -79.5l-30 33l6 5q52 42 52 69q0 7 -20 29t-20 43q0 31 20 48.5t49 17.5q31 0 48.5 -20t17.5 -50z" />
    <glyph glyph-name="dagger" unicode="&#x2020;" horiz-adv-x="490" 
d="M459 481l-61 -36l-131 23q5 -115 5 -133q0 -21 -1 -26q-1 -7 -28 -147l-58 -295h-36l24 295q2 19 4 66.5t7 80.5q1 8 50 159l-135 -23l-53 40l64 39l128 -26l-6 159l53 73l36 -73l-50 -159l138 26z" />
    <glyph glyph-name="daggerdbl" unicode="&#x2021;" horiz-adv-x="532" 
d="M498 481l-61 -36l-130 23q0 -7 2.5 -69.5t2.5 -80.5v-9q-2 -14 -11.5 -48.5t-22.5 -79.5t-15 -52l130 21l54 -38l-65 -38l-122 25v-159l-50 -70l-39 70l51 159l-136 -25l-52 42l63 34l129 -21q0 11 -1.5 65t-1.5 79q0 28 1 36t50 159l-136 -23l-52 40l63 39l129 -26
l-6 159l52 73l37 -73l-50 -159l137 26z" />
    <glyph glyph-name="bullet" unicode="&#x2022;" horiz-adv-x="405" 
d="M46 357q0 64 45 110t111 46t111.5 -45.5t45.5 -110.5t-44.5 -110.5t-110.5 -45.5t-112 45.5t-46 110.5z" />
    <glyph glyph-name="ellipsis" unicode="&#x2026;" horiz-adv-x="639" 
d="M102 -13q-28 0 -47 19.5t-19 47.5q0 27 19 46.5t46 19.5q28 0 47.5 -19t19.5 -47t-19.5 -47.5t-46.5 -19.5zM297 -13q-28 0 -47 19.5t-19 47.5q0 27 19 46.5t46 19.5q28 0 47.5 -19t19.5 -47t-19.5 -47.5t-46.5 -19.5zM493 -13q-28 0 -47 19.5t-19 47.5q0 27 19 46.5
t46 19.5q28 0 47.5 -19t19.5 -47t-19.5 -47.5t-46.5 -19.5z" />
    <glyph glyph-name="perthousand" unicode="&#x2030;" horiz-adv-x="1052" 
d="M1008 226q0 -50 -20.5 -102t-63.5 -90.5t-96 -38.5q-65 0 -101 47t-36 112q0 88 50 159t136 71q63 0 97 -47t34 -111zM674 226q0 -50 -20.5 -102t-63.5 -90.5t-96 -38.5q-65 0 -101 47t-36 112q0 88 50 159t136 71q63 0 97 -47t34 -111zM608 709l-439 -722h-68l406 666
h-173q27 -43 27 -100q0 -50 -20.5 -102t-63 -90.5t-95.5 -38.5q-65 0 -101 47t-36 112q0 87 48 158.5t130 71.5q1 0 11.5 -0.5t23 -1t17.5 -0.5h333zM935 224q0 39 -15.5 70.5t-48.5 31.5q-46 0 -77 -57t-31 -111q0 -38 18 -70.5t52 -32.5q47 0 74.5 57t27.5 112zM288 552
q0 38 -15.5 69.5t-47.5 31.5q-46 0 -77 -56t-31 -112q0 -39 18 -71t52 -32q47 0 74 57.5t27 112.5zM601 224q0 39 -15.5 70.5t-48.5 31.5q-46 0 -77 -57t-31 -111q0 -38 18 -70.5t52 -32.5q47 0 74.5 57t27.5 112z" />
    <glyph glyph-name="guilsinglleft" unicode="&#x2039;" horiz-adv-x="304" 
d="M264 178l-59 -9l-149 160l145 161l61 -11l-116 -150z" />
    <glyph glyph-name="guilsinglright" unicode="&#x203a;" horiz-adv-x="310" 
d="M262 327l-149 -160l-59 9l118 151l-116 150l61 11z" />
    <glyph glyph-name="fraction" unicode="&#x2044;" horiz-adv-x="241" 
d="M-40 -22h-59l396 775h59z" />
    <glyph glyph-name="Euro" unicode="&#x20ac;" horiz-adv-x="480" 
d="M492 453l-49 -57q-27 26 -47.5 35t-53.5 9q-43 0 -80.5 -34.5t-56.5 -80.5h196l-7 -46h-203q-5 -28 -7 -62h203l-7 -47h-193q7 -46 35.5 -80t71.5 -34q57 0 120 44l28 -64q-47 -27 -81 -38t-80 -11q-80 0 -128 51.5t-55 131.5h-75l7 47h68q3 29 9 62h-69l7 46h75
q29 80 93.5 129.5t148.5 49.5q74 0 130 -51z" />
    <glyph glyph-name="trademark" unicode="&#x2122;" horiz-adv-x="580" 
d="M535 724l-31 -225h-49l19 137q0 4 2 14q-17 -34 -80 -151h-30q-8 30 -21 82.5t-18 72.5q0 -5 -1 -8l-20 -147h-42l31 225h66l35 -145l75 145h64zM273 724l-5 -37h-72l-26 -187h-50l26 187h-71l5 37h193z" />
    <glyph glyph-name="Omega" unicode="&#x2126;" horiz-adv-x="727" 
d="M644 0h-247l7 53q64 24 108 89t61.5 136.5t17.5 144.5q0 105 -42.5 174t-135.5 69q-67 0 -120 -39t-83 -99.5t-45 -126t-15 -127.5q0 -79 26 -138.5t81 -82.5l-6 -53h-247l10 69h69l64 -5q-42 35 -65 97t-23 136q0 117 44 216t128 160.5t192 61.5q130 0 197 -83t67 -217
q0 -111 -45.5 -215t-121.5 -156l65 5h69z" />
    <glyph glyph-name="partialdiff" unicode="&#x2202;" horiz-adv-x="523" 
d="M388 355q4 31 4 97q0 102 -39.5 155.5t-97.5 53.5q-28 0 -53.5 -7.5t-36.5 -14.5l-11 -7q-15 36 -24 51q6 6 17.5 14.5t49.5 22.5t80 14q96 0 153 -77t57 -218q0 -104 -21 -186t-52 -130t-71.5 -79.5t-75 -42.5t-65.5 -11q-27 0 -54 8t-53 25.5t-42 51.5t-16 80
q0 65 24 116.5t60.5 80t74 43.5t69.5 15q80 0 123 -55zM377 290q-41 50 -108 50q-60 0 -102 -56t-42 -122q0 -43 21.5 -74t65.5 -31q59 0 102 67t63 166z" />
    <glyph glyph-name="Delta" unicode="&#x2206;" horiz-adv-x="631" 
d="M550 0h-572l7 53q38 75 107 211.5t125 248t106 210.5h75q84 -346 159 -670zM64 66h385q-97 412 -101 430q-4 20 -9.5 58t-8.5 51z" />
    <glyph glyph-name="product" unicode="&#x220f;" horiz-adv-x="833" 
d="M686 -228h-96v883h-347v-883h-96v883h-116v69h772v-69h-117v-883z" />
    <glyph glyph-name="summation" unicode="&#x2211;" horiz-adv-x="726" 
d="M671 -228h-616v98q96 132 290 396l-129 172t-161 216v69h606v-69h-485q77 -100 275 -360q-250 -342 -312 -421h532v-101z" />
    <glyph glyph-name="minus" unicode="&#x2212;" horiz-adv-x="636" 
d="M564 216h-492v61h492v-61z" />
    <glyph glyph-name="radical" unicode="&#x221a;" horiz-adv-x="605" 
d="M291 -230h-83l-148 443l-86 -30l-20 62l163 58l138 -415l320 1060h72z" />
    <glyph glyph-name="infinity" unicode="&#x221e;" horiz-adv-x="812" 
d="M581 82q-52 0 -92.5 30.5t-82.5 84.5q-42 -54 -82.5 -84.5t-92.5 -30.5q-69 0 -111 46.5t-42 119.5t42 119.5t112 46.5q51 0 91.5 -30.5t82.5 -83.5q42 53 82.5 83.5t91.5 30.5q70 0 112 -46.5t42 -119.5t-42 -119.5t-111 -46.5zM580 333q-37 0 -68 -23t-64 -62
q70 -84 134 -84q39 0 62.5 22.5t23.5 61.5t-24.5 62t-63.5 23zM364 248q-21 25 -37.5 41t-42.5 30t-52 14q-39 0 -63.5 -23t-24.5 -62t23.5 -61.5t62.5 -22.5q64 0 134 84z" />
    <glyph glyph-name="integral" unicode="&#x222b;" horiz-adv-x="256" 
d="M-7 -226v57q48 0 73.5 34t25.5 79v600q0 190 176 190v-58q-47 0 -70 -33.5t-23 -79.5v-599q0 -92 -45.5 -141t-136.5 -49z" />
    <glyph glyph-name="approxequal" unicode="&#x2248;" horiz-adv-x="657" 
d="M133 290l-50 32q13 28 49.5 61t84.5 33q49 0 116 -34.5t100 -34.5q30 0 55 22t32 39q34 -21 51 -32q-8 -16 -23 -34.5t-46.5 -39t-65.5 -20.5q-48 0 -115 34.5t-101 34.5q-46 0 -87 -61zM133 99l-50 32q13 28 49.5 61t84.5 33q49 0 116 -34.5t100 -34.5q30 0 55 22t32 39
q34 -21 51 -32q-8 -16 -23 -34.5t-46.5 -39t-65.5 -20.5q-48 0 -115 34.5t-101 34.5q-46 0 -87 -61z" />
    <glyph glyph-name="notequal" unicode="&#x2260;" horiz-adv-x="638" 
d="M565 119h-261l-46 -129h-65l46 129h-167v62h190l48 131h-238v62h260l48 132h64l-48 -132h169v-62h-191l-48 -131h239v-62z" />
    <glyph glyph-name="lessequal" unicode="&#x2264;" horiz-adv-x="630" 
d="M566 76l-498 174v74l498 173v-76l-402 -135l402 -135v-75zM566 0h-498v69h498v-69z" />
    <glyph glyph-name="greaterequal" unicode="&#x2265;" horiz-adv-x="630" 
d="M567 250l-498 -174v75l402 135l-402 135v76l498 -173v-74zM567 0h-498v69h498v-69z" />
    <glyph glyph-name="lozenge" unicode="&#x25ca;" horiz-adv-x="504" 
d="M402 360l-151 291q-100 -194 -149 -291q117 -231 150 -295q17 33 69 136.5t81 158.5zM272 -11h-40l-195 371q29 56 61.5 118t72 137.5t61.5 116.5h40q22 -41 61.5 -116.5t72 -137.5t61.5 -118z" />
    </font>
</defs>
</svg>
